<svg width="14" height="14" viewBox="0 0 14 14" fill="none" xmlns="http://www.w3.org/2000/svg">
<path d="M7 0C3.13861 0 0 3.13862 0 7C0 10.8614 3.13861 14 7 14C10.8614 14 14 10.8614 14 7C14 3.13862 10.8614 0 7 0ZM7 0.777778C10.441 0.777778 13.2222 3.55896 13.2222 7C13.2222 10.441 10.441 13.2222 7 13.2222C3.55896 13.2222 0.777778 10.441 0.777778 7C0.777778 3.55896 3.55896 0.777778 7 0.777778ZM6.95747 3.49392C6.86081 3.50454 6.77164 3.55099 6.70753 3.62409C6.64342 3.6972 6.60902 3.79167 6.61111 3.88889V6.61111H3.88889C3.87674 6.61054 3.86458 6.61054 3.85243 6.61111C3.80135 6.6135 3.75125 6.62592 3.70497 6.64767C3.6587 6.66942 3.61716 6.70007 3.58273 6.73788C3.54831 6.77568 3.52166 6.8199 3.50433 6.86801C3.48699 6.91611 3.4793 6.96716 3.48169 7.01823C3.48409 7.06931 3.49652 7.11941 3.51828 7.16568C3.54004 7.21196 3.5707 7.25349 3.60851 7.28791C3.64633 7.32233 3.69055 7.34896 3.73866 7.36629C3.78676 7.38361 3.83781 7.39129 3.88889 7.38889H6.61111V10.1111C6.61038 10.1626 6.6199 10.2138 6.63912 10.2616C6.65834 10.3094 6.68687 10.353 6.72305 10.3897C6.75924 10.4264 6.80235 10.4555 6.8499 10.4754C6.89744 10.4953 6.94846 10.5055 7 10.5055C7.05154 10.5055 7.10256 10.4953 7.1501 10.4754C7.19765 10.4555 7.24076 10.4264 7.27695 10.3897C7.31313 10.353 7.34166 10.3094 7.36088 10.2616C7.3801 10.2138 7.38962 10.1626 7.38889 10.1111V7.38889H10.1111C10.1626 7.38962 10.2138 7.3801 10.2616 7.36088C10.3094 7.34166 10.353 7.31313 10.3897 7.27695C10.4264 7.24076 10.4555 7.19765 10.4754 7.1501C10.4953 7.10256 10.5055 7.05154 10.5055 7C10.5055 6.94846 10.4953 6.89744 10.4754 6.8499C10.4555 6.80235 10.4264 6.75924 10.3897 6.72305C10.353 6.68687 10.3094 6.65834 10.2616 6.63912C10.2138 6.6199 10.1626 6.61038 10.1111 6.61111H7.38889V3.88889C7.39008 3.83353 7.37944 3.77855 7.35767 3.72763C7.33591 3.67672 7.30352 3.63104 7.26268 3.59365C7.22183 3.55625 7.17348 3.52802 7.12084 3.51082C7.06821 3.49362 7.01251 3.48786 6.95747 3.49392Z" fill="#445D81"/>
</svg>
