<svg width="36" height="34" viewBox="0 0 36 34" fill="none" xmlns="http://www.w3.org/2000/svg">
<path d="M11.9197 0.00220175C11.8204 0.024293 11.7311 0.0865661 11.6674 0.178044C11.6037 0.269522 11.5697 0.384323 11.5715 0.502171V11.0015H6.42863C6.4019 10.9986 6.375 10.9986 6.34827 11.0015C6.24903 11.0236 6.15966 11.0859 6.09595 11.1773C6.03224 11.2688 5.99828 11.3836 6.00006 11.5015V21.0009H0.428637C0.40191 20.9979 0.375007 20.9979 0.34828 21.0009C0.249039 21.0229 0.159676 21.0852 0.0959652 21.1767C0.032254 21.2682 -0.00171043 21.3829 6.63372e-05 21.5008V28.5004C8.17026e-05 28.633 0.0452401 28.7601 0.12561 28.8539C0.20598 28.9476 0.314979 29.0003 0.428637 29.0003H3.88399C3.86787 29.1668 3.8572 29.3289 3.8572 29.5003C3.8572 31.9795 5.58918 34 7.71434 34C9.8395 34 11.5715 31.9795 11.5715 29.5003C11.5715 29.3289 11.5608 29.1668 11.5447 29.0003H24.4554C24.4393 29.1668 24.4286 29.3289 24.4286 29.5003C24.4286 31.9795 26.1606 34 28.2857 34C30.4109 34 32.1429 31.9795 32.1429 29.5003C32.1429 29.3289 32.1322 29.1668 32.1161 29.0003H35.5714C35.6851 29.0003 35.7941 28.9476 35.8745 28.8539C35.9548 28.7601 36 28.633 36 28.5004V21.5008C36 21.3682 35.9548 21.2411 35.8745 21.1473C35.7941 21.0536 35.6851 21.0009 35.5714 21.0009H30V11.5015C30 11.3689 29.9548 11.2417 29.8745 11.148C29.7941 11.0542 29.6851 11.0015 29.5714 11.0015H24.4286V0.502171C24.4286 0.369575 24.3834 0.242415 24.3031 0.148656C24.2227 0.0548958 24.1137 0.00221501 24 0.00220175H12C11.9733 -0.000733917 11.9464 -0.000733917 11.9197 0.00220175ZM12.4286 1.00214H23.5715V11.0015H12.4286V1.00214ZM6.8572 12.0014H17.5715V21.0009H6.8572V12.0014ZM18.4286 12.0014H29.1429V21.0009H18.4286V12.0014ZM0.857208 22.0008H35.1429V28.0004H31.9152C31.3845 26.2542 29.9611 25.0005 28.2857 25.0005C26.6104 25.0005 25.187 26.2542 24.6563 28.0004H11.3438C10.8131 26.2542 9.38968 25.0005 7.71434 25.0005C6.03899 25.0005 4.6156 26.2542 4.08488 28.0004H0.857208V22.0008ZM7.71434 26.0005C9.37627 26.0005 10.7143 27.5615 10.7143 29.5003C10.7143 31.4391 9.37627 33.0001 7.71434 33.0001C6.05241 33.0001 4.71434 31.4391 4.71434 29.5003C4.71434 27.5615 6.05241 26.0005 7.71434 26.0005ZM28.2857 26.0005C29.9477 26.0005 31.2857 27.5615 31.2857 29.5003C31.2857 31.4391 29.9477 33.0001 28.2857 33.0001C26.6238 33.0001 25.2857 31.4391 25.2857 29.5003C25.2857 27.5615 26.6238 26.0005 28.2857 26.0005ZM7.71434 28.5004C7.24095 28.5004 6.8572 28.9481 6.8572 29.5003C6.8572 30.0526 7.24095 30.5002 7.71434 30.5002C8.18772 30.5002 8.57148 30.0526 8.57148 29.5003C8.57148 28.9481 8.18772 28.5004 7.71434 28.5004ZM28.2857 28.5004C27.8123 28.5004 27.4286 28.9481 27.4286 29.5003C27.4286 30.0526 27.8123 30.5002 28.2857 30.5002C28.7591 30.5002 29.1429 30.0526 29.1429 29.5003C29.1429 28.9481 28.7591 28.5004 28.2857 28.5004Z" fill="#163666"/>
</svg>
