<svg width="36" height="34" viewBox="0 0 36 34" fill="none" xmlns="http://www.w3.org/2000/svg">
<path d="M8.661 7.51401C9.65069 7.51401 10.4548 6.70001 10.4548 5.69817C10.4548 4.69632 9.65069 3.88232 8.661 3.88232C7.67131 3.88232 6.86719 4.69632 6.86719 5.69817C6.86719 6.70001 7.67131 7.51401 8.661 7.51401ZM8.661 5.13463C8.97028 5.13463 9.2177 5.38509 9.2177 5.69817C9.2177 6.01124 8.97028 6.2617 8.661 6.2617C8.35172 6.2617 8.1043 6.01124 8.1043 5.69817C8.1043 5.38509 8.35172 5.13463 8.661 5.13463Z" fill="#163666"/>
<path d="M17.4428 6.32408H27.8964C28.2675 6.32408 28.5149 6.07362 28.5149 5.69793C28.5149 5.32224 28.2675 5.07178 27.8964 5.07178H17.4428C17.0716 5.07178 16.8242 5.32224 16.8242 5.69793C16.8242 6.07362 17.0716 6.32408 17.4428 6.32408Z" fill="#163666"/>
<path d="M6.86719 16.0297C6.86719 17.0316 7.67131 17.8455 8.661 17.8455C9.65069 17.8455 10.4548 17.0316 10.4548 16.0297C10.4548 15.0279 9.65069 14.2139 8.661 14.2139C7.67131 14.2139 6.86719 15.0279 6.86719 16.0297ZM9.2177 16.0297C9.2177 16.3428 8.97028 16.5932 8.661 16.5932C8.35172 16.5932 8.1043 16.3428 8.1043 16.0297C8.1043 15.7166 8.35172 15.4662 8.661 15.4662C8.97028 15.4662 9.2177 15.7166 9.2177 16.0297Z" fill="#163666"/>
<path d="M20.7217 30.8067H5.69072C3.2165 30.8067 1.23711 28.803 1.23711 26.2984C1.23711 23.7938 3.2165 21.7901 5.69072 21.7901H19.2371C19.6082 21.7901 19.8557 21.5396 19.8557 21.1639C19.8557 20.7883 19.6082 20.5378 19.2371 20.5378H5.69072C3.2165 20.5378 1.23711 18.5341 1.23711 16.0295C1.23711 13.5249 3.2165 11.5212 5.69072 11.5212H29.2577C30.9897 11.5212 32.5361 12.523 33.2784 14.0884C33.4021 14.4015 33.7732 14.5267 34.0825 14.4015C34.3918 14.2763 34.5155 13.9006 34.3918 13.5875C33.8351 12.3978 32.9072 11.4586 31.7938 10.895C33.6495 9.95582 34.9485 8.01475 34.9485 5.7606C34.9485 2.56722 32.4124 0 29.2577 0H5.69072C2.53608 0 0 2.56722 0 5.7606C0 8.01475 1.29897 9.95582 3.15464 10.895C1.29897 11.8343 0 13.7753 0 16.0295C0 18.2836 1.29897 20.2247 3.15464 21.1639C1.29897 22.1032 0 24.0442 0 26.2984C0 29.4918 2.53608 32.059 5.69072 32.059H20.7217C21.0928 32.059 21.3402 31.8085 21.3402 31.4328C21.3402 31.0571 21.0928 30.8067 20.7217 30.8067ZM1.23711 5.7606C1.23711 3.25599 3.2165 1.2523 5.69072 1.2523H29.2577C31.732 1.2523 33.7113 3.25599 33.7113 5.7606C33.7113 8.26521 31.6701 10.2689 29.1959 10.2689H5.69072C3.2165 10.2689 1.23711 8.26521 1.23711 5.7606Z" fill="#163666"/>
<path d="M6.86719 26.2983C6.86719 27.3001 7.67131 28.1141 8.661 28.1141C9.65069 28.1141 10.4548 27.3001 10.4548 26.2983C10.4548 25.2964 9.65069 24.4824 8.661 24.4824C7.67131 24.4824 6.86719 25.2964 6.86719 26.2983ZM9.2177 26.2983C9.2177 26.6113 8.97028 26.8618 8.661 26.8618C8.35172 26.8618 8.1043 26.6113 8.1043 26.2983C8.1043 25.9852 8.35172 25.7347 8.661 25.7347C8.97028 25.7347 9.2177 25.9852 9.2177 26.2983Z" fill="#163666"/>
<path d="M35.4435 17.094L32.7837 16.781C31.9178 16.5931 31.2374 16.2801 30.5569 15.8417L29.1961 14.9025C29.0106 14.7773 28.7013 14.7773 28.5157 14.9025L27.1549 15.8417C26.5363 16.2801 25.7941 16.5931 24.9899 16.7184L22.3301 17.094C22.0209 17.1567 21.7734 17.4071 21.7734 17.7202V24.3574C21.7734 28.0517 23.8765 31.4329 27.1549 33.1862L28.5776 33.9375C28.6394 34.0002 28.7631 34.0002 28.8868 34.0002C29.0106 34.0002 29.0724 34.0002 29.1961 33.9375L30.6188 33.1862C33.959 31.4329 36.0002 28.0517 36.0002 24.3574V17.7202C36.0002 17.4071 35.7528 17.1567 35.4435 17.094ZM34.7631 24.3574C34.7631 27.5508 32.9693 30.5563 30.0002 32.0591L28.8868 32.6852L27.7734 32.0591C24.8662 30.5563 23.0106 27.6134 23.0106 24.3574V18.2837L25.2374 18.0333C26.227 17.8454 27.093 17.4697 27.8972 16.9062L28.8868 16.2174L29.8765 16.9062C30.6188 17.4071 31.4848 17.7828 32.5363 18.0333L34.7013 18.2837V24.3574H34.7631Z" fill="#163666"/>
<path d="M31.98 21.2888L27.8976 25.6719L25.7945 23.7308C25.547 23.4804 25.1759 23.4804 24.9285 23.7934C24.6811 24.0439 24.6811 24.4196 24.9903 24.6701L27.5264 27.0494C27.6501 27.1747 27.7738 27.2373 27.9594 27.2373C28.145 27.2373 28.2687 27.1747 28.3924 27.0494L32.9079 22.2281C33.1553 21.9776 33.1553 21.6019 32.9079 21.3515C32.6604 21.101 32.2274 21.0384 31.98 21.2888Z" fill="#163666"/>
</svg>
