<svg width="37" height="34" viewBox="0 0 37 34" fill="none" xmlns="http://www.w3.org/2000/svg">
<path d="M4.69743 10.105C4.48918 10.105 4.32031 10.2652 4.32031 10.4629C4.32031 10.6605 4.48918 10.8208 4.69743 10.8208H22.6376C22.8458 10.8208 23.0147 10.6605 23.0147 10.4629C23.0147 10.2652 22.8458 10.105 22.6376 10.105H4.69743Z" fill="#163666"/>
<path d="M4.69743 13.9741C4.48918 13.9741 4.32031 14.1344 4.32031 14.332C4.32031 14.5296 4.48918 14.6899 4.69743 14.6899H22.6376C22.8458 14.6899 23.0147 14.5296 23.0147 14.332C23.0147 14.1344 22.8458 13.9741 22.6376 13.9741H4.69743Z" fill="#163666"/>
<path d="M4.69743 17.8438C4.48918 17.8438 4.32031 18.004 4.32031 18.2016C4.32031 18.3993 4.48918 18.5595 4.69743 18.5595H22.6376C22.8458 18.5595 23.0147 18.3993 23.0147 18.2016C23.0147 18.004 22.8458 17.8438 22.6376 17.8438H4.69743Z" fill="#163666"/>
<path d="M4.69743 21.7134C4.48918 21.7134 4.32031 21.8736 4.32031 22.0713C4.32031 22.2689 4.48918 22.4292 4.69743 22.4292H22.6376C22.8458 22.4292 23.0147 22.2689 23.0147 22.0713C23.0147 21.8736 22.8458 21.7134 22.6376 21.7134H4.69743Z" fill="#163666"/>
<path d="M4.69743 25.583C4.48918 25.583 4.32031 25.7433 4.32031 25.9409C4.32031 26.1385 4.48918 26.2988 4.69743 26.2988H22.6376C22.8458 26.2988 23.0147 26.1385 23.0147 25.9409C23.0147 25.7433 22.8458 25.583 22.6376 25.583H4.69743Z" fill="#163666"/>
<path d="M4.69743 29.4526C4.48918 29.4526 4.32031 29.6129 4.32031 29.8105C4.32031 30.0082 4.48918 30.1684 4.69743 30.1684H22.6376C22.8458 30.1684 23.0147 30.0082 23.0147 29.8105C23.0147 29.6129 22.8458 29.4526 22.6376 29.4526H4.69743Z" fill="#163666"/>
<path d="M7.01218 0H20.3196C20.8959 0 21.4196 0.2235 21.799 0.583505C22.1783 0.943535 22.4138 1.4405 22.4138 1.98741V6.19707C22.4138 6.74395 22.1783 7.24091 21.799 7.60094C21.4196 7.96095 20.8959 8.18445 20.3196 8.18445H7.01218C6.43587 8.18445 5.91221 7.96095 5.53283 7.60094C5.15348 7.24094 4.91797 6.74398 4.91797 6.19707V1.98741C4.91797 1.4405 5.15348 0.943538 5.53283 0.583505C5.91221 0.2235 6.43587 0 7.01218 0ZM20.3196 0.71578H7.01218C6.64407 0.71578 6.30913 0.858968 6.0661 1.08957C5.8231 1.32021 5.67222 1.63807 5.67222 1.9874V6.19706C5.67222 6.54639 5.8231 6.86426 6.0661 7.09486C6.30913 7.32547 6.64407 7.46866 7.01218 7.46866H20.3196C20.6877 7.46866 21.0227 7.32547 21.2657 7.09486C21.5087 6.86423 21.6596 6.54636 21.6596 6.19706V1.9874C21.6596 1.63807 21.5087 1.32021 21.2657 1.08957C21.0227 0.858968 20.6877 0.71578 20.3196 0.71578Z" fill="#163666"/>
<path d="M1.99557 3.73535H5.29235C5.50061 3.73535 5.66947 3.89561 5.66947 4.09324V6.19808C5.66947 6.54738 5.82035 6.86525 6.06335 7.09586C6.30638 7.32649 6.64133 7.46968 7.0094 7.46968H20.3169C20.685 7.46968 21.0199 7.32649 21.2629 7.09586C21.506 6.86525 21.6569 6.54738 21.6569 6.19808V4.09324C21.6569 3.89561 21.8257 3.73535 22.034 3.73535H25.3307C26.4283 3.73535 27.3263 4.58753 27.3263 5.62913V32.1061C27.3263 32.6272 27.1019 33.1008 26.7404 33.4438C26.3789 33.7869 25.8799 33.9999 25.3307 33.9999H1.99557C0.897973 33.9999 0 33.1476 0 32.1061V5.62913C0 5.10797 0.224403 4.63442 0.585908 4.29135C0.947385 3.94831 1.44641 3.73535 1.99557 3.73535H1.99557ZM4.91522 4.45113H1.99557C1.65461 4.45113 1.3443 4.58378 1.11917 4.79743C0.894014 5.0111 0.754239 5.30556 0.754239 5.62913V32.1061C0.754239 32.754 1.31284 33.2841 1.99557 33.2841H25.3307C25.6717 33.2841 25.982 33.1514 26.2071 32.9378C26.4323 32.7241 26.5721 32.4296 26.5721 32.1061V5.62913C26.5721 4.98124 26.0135 4.45113 25.3307 4.45113H22.4111V6.19808C22.4111 6.74497 22.1756 7.24193 21.7962 7.60194C21.4169 7.96197 20.8932 8.18547 20.3169 8.18547H7.00939C6.43312 8.18547 5.90945 7.96197 5.53007 7.60194C5.15072 7.24193 4.91521 6.74497 4.91521 6.19808V4.45113L4.91522 4.45113Z" fill="#163666"/>
<path d="M35.9553 27.2938L32.6455 33.7971L32.3067 33.6419L32.6462 33.7976C32.5557 33.9755 32.3302 34.0501 32.1427 33.9642C32.0539 33.9235 31.9895 33.854 31.9559 33.7733L29.0725 27.2539L29.0724 27.254C29.0478 27.1982 29.0391 27.1398 29.0445 27.0835L29.0446 4.1323H29.0431C29.0431 3.93467 29.2119 3.77444 29.4202 3.77444V3.77441H35.6283C35.8365 3.77441 36.0054 3.93467 36.0054 4.1323V27.1155C36.0054 27.1804 35.9871 27.2413 35.9553 27.2938H35.9553ZM32.3312 32.7729L35.2511 27.0355V4.49024H29.7959L29.7958 27.0404L32.3312 32.773L32.3312 32.7729Z" fill="#163666"/>
<path d="M33.9336 30.7939C34.1419 30.7939 34.3107 30.6336 34.3107 30.436C34.3107 30.2384 34.1419 30.0781 33.9336 30.0781H30.8849C30.6767 30.0781 30.5078 30.2384 30.5078 30.436C30.5078 30.6337 30.6767 30.7939 30.8849 30.7939H33.9336Z" fill="#163666"/>
<path d="M35.6282 4.48923H29.4201C29.2118 4.48923 29.043 4.32898 29.043 4.13134V2.24462C29.043 1.62698 29.309 1.06572 29.7375 0.659088C30.166 0.252429 30.7574 0 31.4082 0H33.6401C34.2909 0 34.8823 0.252428 35.3108 0.659061C35.7393 1.06572 36.0053 1.62698 36.0053 2.24462V4.13134C36.0053 4.32898 35.8364 4.48923 35.6282 4.48923H35.6282ZM29.7972 3.77345H35.2511V2.24461C35.2511 1.82456 35.0697 1.44239 34.7776 1.16513C34.4854 0.887892 34.0827 0.715776 33.6401 0.715776H31.4082C30.9656 0.715776 30.5629 0.887893 30.2707 1.16515C29.9786 1.44239 29.7972 1.82456 29.7972 2.24461V3.77345H29.7972Z" fill="#163666"/>
<path d="M35.6282 27.4716C35.8365 27.4716 36.0053 27.3114 36.0053 27.1138C36.0053 26.9161 35.8365 26.7559 35.6282 26.7559H29.4201C29.2118 26.7559 29.043 26.9161 29.043 27.1138C29.043 27.3114 29.2118 27.4716 29.4201 27.4716H35.6282Z" fill="#163666"/>
<path d="M31.6214 7.63523C31.6214 7.4376 31.4526 7.27734 31.2443 7.27734C31.0361 7.27734 30.8672 7.4376 30.8672 7.63523V23.426C30.8672 23.6237 31.0361 23.7839 31.2443 23.7839C31.4526 23.7839 31.6214 23.6237 31.6214 23.426V7.63523Z" fill="#163666"/>
<path d="M34.1605 7.63523C34.1605 7.4376 33.9916 7.27734 33.7834 7.27734C33.5751 7.27734 33.4062 7.4376 33.4062 7.63523V23.426C33.4062 23.6237 33.5751 23.7839 33.7834 23.7839C33.9916 23.7839 34.1605 23.6237 34.1605 23.426V7.63523Z" fill="#163666"/>
</svg>
