<svg width="18" height="18" viewBox="0 0 18 18" fill="none" xmlns="http://www.w3.org/2000/svg">
<path d="M17.7076 0.292428C17.3176 -0.0974699 16.6854 -0.0974699 16.2955 0.292428L8.99999 7.58797L1.70448 0.292449C1.31454 -0.0974829 0.682374 -0.0974829 0.292442 0.292449C-0.0974692 0.68238 -0.0974924 1.31455 0.292442 1.70452L7.58795 9L0.292465 16.2955C-0.0974563 16.6854 -0.097443 17.3176 0.292465 17.7075C0.6824 18.0974 1.31458 18.0974 1.7045 17.7075L8.99998 10.412L16.2955 17.7076C16.6854 18.0975 17.3176 18.0975 17.7075 17.7076C18.0975 17.3176 18.0975 16.6854 17.7075 16.2955L10.412 9L17.7076 1.70447C18.0975 1.31454 18.0975 0.68236 17.7076 0.292428Z" fill="#A1AEC0"/>
</svg>
