<svg width="36" height="33" viewBox="0 0 36 33" fill="none" xmlns="http://www.w3.org/2000/svg">
<path d="M35.7809 15.1158L30.1582 7.90945C30.0487 7.77763 29.8661 7.68975 29.7201 7.68975H23.0751V3.8229C23.0751 1.71371 21.6511 0 19.8986 0H3.17647C1.42394 0 0 1.71371 0 3.8229V28.2983C0 28.6937 0.255578 29.0453 0.62069 29.0453H2.9574C3.17647 31.2423 4.78296 33 6.68154 33C8.58012 33 10.1501 31.2863 10.4057 29.0453H22.4544H24.7911C25.0101 31.2423 26.6166 33 28.5152 33C30.4138 33 31.9838 31.2863 32.2393 29.0453H35.3793C35.7079 29.0453 36 28.7377 36 28.2983V15.6431C35.9635 15.4674 35.8905 15.2477 35.7809 15.1158ZM34.7221 15.9068V16.6977H27.2373V9.18376H29.428L34.7221 15.9068ZM3.17647 1.45007H19.8986C20.9939 1.45007 21.8702 2.50466 21.8702 3.8229V8.43675V21.1798H1.20487V3.8229C1.20487 2.50466 2.08114 1.45007 3.17647 1.45007ZM6.68154 31.506C5.29412 31.506 4.16227 30.1438 4.16227 28.474C4.16227 26.8043 5.29412 25.4421 6.68154 25.4421C8.06897 25.4421 9.20081 26.8043 9.20081 28.474C9.20081 30.1438 8.06897 31.506 6.68154 31.506ZM6.68154 23.9481C4.85598 23.9481 3.35903 25.486 2.99392 27.5513H1.20487V22.6738H21.8337V27.5513H10.3327C10.0041 25.486 8.47059 23.9481 6.68154 23.9481ZM28.4787 31.506C27.0913 31.506 25.9594 30.1438 25.9594 28.474C25.9594 26.8043 27.0913 25.4421 28.4787 25.4421C29.8661 25.4421 30.998 26.8043 30.998 28.474C30.998 30.1438 29.8661 31.506 28.4787 31.506ZM32.1663 27.5513C31.8012 25.486 30.3043 23.9481 28.4787 23.9481C26.6531 23.9481 25.1562 25.486 24.7911 27.5513H23.0385V9.18376H25.9959V17.4887C25.9959 17.8842 26.2515 18.2357 26.6166 18.2357H34.7221V27.5952H32.1663V27.5513Z" fill="#163666"/>
</svg>
