<svg width="548" height="522" viewBox="0 0 548 522" fill="none" xmlns="http://www.w3.org/2000/svg">
<g opacity="0.7">
<path d="M493.096 482.81H456.797V483.16H493.096V482.81Z" fill="#EBEBEB"/>
<path d="M363.016 486.632H353.492V486.983H363.016V486.632Z" fill="#EBEBEB"/>
<path d="M455.692 469.766H434.66V470.116H455.692V469.766Z" fill="#EBEBEB"/>
<path d="M104.828 472.127H57.4922V472.477H104.828V472.127Z" fill="#EBEBEB"/>
<path d="M121.535 472.127H114.598V472.477H121.535V472.127Z" fill="#EBEBEB"/>
<path d="M246.767 478.058H144.094V478.409H246.767V478.058Z" fill="#EBEBEB"/>
<path d="M259.753 397.504H48.1371C46.4773 397.504 44.8855 396.658 43.7119 395.153C42.5382 393.648 41.8789 391.606 41.8789 389.478V7.95569C41.8934 5.83927 42.5591 3.81585 43.7311 2.32585C44.9032 0.835857 46.4867 -8.11395e-05 48.1371 5.9071e-09H259.753C261.413 5.90712e-09 263.004 0.845591 264.178 2.35075C265.352 3.85592 266.011 5.89735 266.011 8.02597V389.478C266.011 391.606 265.352 393.648 264.178 395.153C263.004 396.658 261.413 397.504 259.753 397.504V397.504ZM48.1371 0.281121C46.5509 0.284837 45.0304 1.0946 43.9088 2.53305C42.7872 3.97151 42.1558 5.92141 42.1529 7.95569V389.478C42.1558 391.512 42.7872 393.462 43.9088 394.9C45.0304 396.339 46.5509 397.148 48.1371 397.152H259.753C261.339 397.148 262.859 396.339 263.981 394.9C265.103 393.462 265.734 391.512 265.737 389.478V7.95569C265.734 5.92141 265.103 3.97151 263.981 2.53305C262.859 1.0946 261.339 0.284837 259.753 0.281121H48.1371Z" fill="#EBEBEB"/>
<path d="M496.825 397.504H285.188C283.529 397.5 281.939 396.653 280.766 395.149C279.593 393.644 278.933 391.605 278.93 389.478V7.95569C278.947 5.84042 279.614 3.81912 280.785 2.32991C281.957 0.840701 283.538 0.00358188 285.188 0H496.825C498.472 0.00731544 500.05 0.846521 501.217 2.33572C502.385 3.82493 503.047 5.84413 503.062 7.95569V389.478C503.062 391.601 502.405 393.638 501.236 395.143C500.068 396.647 498.481 397.496 496.825 397.504V397.504ZM285.188 0.281121C283.602 0.284837 282.081 1.0946 280.96 2.53305C279.838 3.97151 279.207 5.92141 279.204 7.95569V389.478C279.207 391.512 279.838 393.462 280.96 394.9C282.081 396.339 283.602 397.148 285.188 397.152H496.825C498.412 397.148 499.932 396.339 501.054 394.9C502.175 393.462 502.807 391.512 502.81 389.478V7.95569C502.807 5.92141 502.175 3.97151 501.054 2.53305C499.932 1.0946 498.412 0.284837 496.825 0.281121H285.188Z" fill="#EBEBEB"/>
<path d="M548 460.193H0V460.544H548V460.193Z" fill="#EBEBEB"/>
<path d="M485.747 365.273H397.793V459.941H485.747V365.273Z" fill="#F0F0F0"/>
<path d="M468.857 391.516H480.113V377.08H468.857V391.516Z" fill="#FAFAFA"/>
<path d="M447.049 391.516H458.305V377.08H447.049V391.516Z" fill="#FAFAFA"/>
<path d="M425.24 391.516H436.496V377.08H425.24V391.516Z" fill="#FAFAFA"/>
<path d="M403.424 391.516H414.68V377.08H403.424V391.516Z" fill="#FAFAFA"/>
<path d="M468.857 417.758H480.113V403.322H468.857V417.758Z" fill="#FAFAFA"/>
<path d="M447.049 417.758H458.305V403.322H447.049V417.758Z" fill="#FAFAFA"/>
<path d="M425.24 417.758H436.496V403.322H425.24V417.758Z" fill="#FAFAFA"/>
<path d="M403.424 417.758H414.68V403.322H403.424V417.758Z" fill="#FAFAFA"/>
<path d="M468.857 444.001H480.113V429.565H468.857V444.001Z" fill="#FAFAFA"/>
<path d="M447.049 444.001H458.305V429.565H447.049V444.001Z" fill="#FAFAFA"/>
<path d="M425.24 444.001H436.496V429.565H425.24V444.001Z" fill="#FAFAFA"/>
<path d="M403.424 444.001H414.68V429.565H403.424V444.001Z" fill="#FAFAFA"/>
<path d="M419.188 200.888V165.41H416.371V200.888H419.188Z" fill="#EBEBEB"/>
<path d="M482.922 200.888V165.41H480.105V200.888H482.922Z" fill="#EBEBEB"/>
<path d="M451.059 200.888V165.41H448.242V200.888H451.059Z" fill="#EBEBEB"/>
<path d="M485.747 197.275H413.531V200.888H485.747V197.275Z" fill="#F5F5F5"/>
<path d="M485.747 163.598H413.531V167.21H485.747V163.598Z" fill="#F5F5F5"/>
<path d="M419.176 167.224V131.747H416.359V167.224H419.176Z" fill="#EBEBEB"/>
<path d="M482.922 167.209V131.732H480.105V167.209H482.922Z" fill="#EBEBEB"/>
<path d="M451.047 167.224V131.747H448.23V167.224H451.047Z" fill="#EBEBEB"/>
<path d="M485.747 129.933H413.531V133.545H485.747V129.933Z" fill="#F5F5F5"/>
<path d="M485.747 200.607H397.793V365.273H485.747V200.607Z" fill="#FAFAFA"/>
<path d="M480.124 207.831H447.047V248.509H480.124V207.831Z" fill="#F0F0F0"/>
<path d="M436.503 207.831H403.426V248.509H436.503V207.831Z" fill="#F0F0F0"/>
<path d="M480.124 260.317H447.047V300.995H480.124V260.317Z" fill="#F0F0F0"/>
<path d="M436.503 260.317H403.426V300.995H436.503V260.317Z" fill="#F0F0F0"/>
<path d="M480.124 312.801H447.047V353.479H480.124V312.801Z" fill="#F0F0F0"/>
<path d="M436.503 312.801H403.426V353.479H436.503V312.801Z" fill="#F0F0F0"/>
<path d="M298.672 274.387H215.387V459.082H298.672V274.387Z" fill="#EBEBEB"/>
<path d="M282.679 248.565V274.386H276.103H237.94H231.375V248.565H282.679Z" fill="#EBEBEB"/>
<path d="M282.668 294.895H293.332V281.218H282.668V294.895Z" fill="#FAFAFA"/>
<path d="M262.023 294.895H272.688V281.218H262.023V294.895Z" fill="#FAFAFA"/>
<path d="M241.359 294.895H252.023V281.218H241.359V294.895Z" fill="#FAFAFA"/>
<path d="M220.723 294.895H231.387V281.218H220.723V294.895Z" fill="#FAFAFA"/>
<path d="M282.668 319.732H293.332V306.056H282.668V319.732Z" fill="#FAFAFA"/>
<path d="M262.023 319.732H272.688V306.056H262.023V319.732Z" fill="#FAFAFA"/>
<path d="M241.359 319.732H252.023V306.056H241.359V319.732Z" fill="#FAFAFA"/>
<path d="M220.723 319.732H231.387V306.056H220.723V319.732Z" fill="#FAFAFA"/>
<path d="M282.668 344.597H293.332V330.92H282.668V344.597Z" fill="#FAFAFA"/>
<path d="M262.023 344.597H272.688V330.92H262.023V344.597Z" fill="#FAFAFA"/>
<path d="M241.359 344.597H252.023V330.92H241.359V344.597Z" fill="#FAFAFA"/>
<path d="M262.023 273.417H272.688V259.74H262.023V273.417Z" fill="#FAFAFA"/>
<path d="M241.359 273.417H252.023V259.74H241.359V273.417Z" fill="#FAFAFA"/>
<path d="M220.723 344.597H231.387V330.92H220.723V344.597Z" fill="#FAFAFA"/>
<path d="M282.668 369.433H293.332V355.756H282.668V369.433Z" fill="#FAFAFA"/>
<path d="M262.023 369.433H272.688V355.756H262.023V369.433Z" fill="#FAFAFA"/>
<path d="M241.359 369.433H252.023V355.756H241.359V369.433Z" fill="#FAFAFA"/>
<path d="M220.723 369.433H231.387V355.756H220.723V369.433Z" fill="#FAFAFA"/>
<path d="M282.668 394.271H293.332V380.594H282.668V394.271Z" fill="#FAFAFA"/>
<path d="M262.023 394.271H272.688V380.594H262.023V394.271Z" fill="#FAFAFA"/>
<path d="M241.359 394.271H252.023V380.594H241.359V394.271Z" fill="#FAFAFA"/>
<path d="M220.723 394.271H231.387V380.594H220.723V394.271Z" fill="#FAFAFA"/>
<path d="M282.668 419.135H293.332V405.458H282.668V419.135Z" fill="#FAFAFA"/>
<path d="M262.023 419.135H272.688V405.458H262.023V419.135Z" fill="#FAFAFA"/>
<path d="M241.359 419.135H252.023V405.458H241.359V419.135Z" fill="#FAFAFA"/>
<path d="M220.723 419.135H231.387V405.458H220.723V419.135Z" fill="#FAFAFA"/>
<path d="M282.668 443.973H293.332V430.296H282.668V443.973Z" fill="#FAFAFA"/>
<path d="M262.023 443.973H272.688V430.296H262.023V443.973Z" fill="#FAFAFA"/>
<path d="M241.359 443.973H252.023V430.296H241.359V443.973Z" fill="#FAFAFA"/>
<path d="M220.723 443.973H231.387V430.296H220.723V443.973Z" fill="#FAFAFA"/>
<path d="M300.391 271.729H213.664V274.512H300.391V271.729Z" fill="#F5F5F5"/>
<path d="M233.559 248.566V221.228H231.389V248.566H233.559Z" fill="#EBEBEB"/>
<path d="M282.68 248.566V221.228H280.51V248.566H282.68Z" fill="#EBEBEB"/>
<path d="M258.121 248.566V221.228H255.951V248.566H258.121Z" fill="#EBEBEB"/>
<path d="M284.85 245.783H229.195V248.566H284.85V245.783Z" fill="#F5F5F5"/>
<path d="M284.85 219.835H229.195V222.619H284.85V219.835Z" fill="#F5F5F5"/>
<path d="M233.559 222.618V195.279H231.389V222.618H233.559Z" fill="#EBEBEB"/>
<path d="M282.68 222.618V195.279H280.51V222.618H282.68Z" fill="#EBEBEB"/>
<path d="M258.121 222.618V195.279H255.951V222.618H258.121Z" fill="#EBEBEB"/>
<path d="M284.85 193.889H229.195V196.672H284.85V193.889Z" fill="#F5F5F5"/>
<path d="M233.559 196.672V169.333H231.389V196.672H233.559Z" fill="#EBEBEB"/>
<path d="M282.68 196.672V169.333H280.51V196.672H282.68Z" fill="#EBEBEB"/>
<path d="M258.121 196.672V169.333H255.951V196.672H258.121Z" fill="#EBEBEB"/>
<path d="M284.85 167.928H229.195V170.711H284.85V167.928Z" fill="#F5F5F5"/>
<path d="M233.559 170.723V143.384H231.389V170.723H233.559Z" fill="#EBEBEB"/>
<path d="M282.672 170.723V143.384H280.502V170.723H282.672Z" fill="#EBEBEB"/>
<path d="M258.121 170.723V143.384H255.951V170.723H258.121Z" fill="#EBEBEB"/>
<path d="M284.85 141.979H229.195V144.762H284.85V141.979Z" fill="#F5F5F5"/>
<path d="M411.623 239.528H312.621V459.083H411.623V239.528Z" fill="#EBEBEB"/>
<path d="M392.618 208.844V239.514H384.804H339.44H331.637V208.844H392.618Z" fill="#EBEBEB"/>
<path d="M392.608 263.9H405.289V247.652H392.608V263.9Z" fill="#FAFAFA"/>
<path d="M368.058 263.9H380.738V247.652H368.058V263.9Z" fill="#FAFAFA"/>
<path d="M343.522 263.9H356.191V247.652H343.522V263.9Z" fill="#FAFAFA"/>
<path d="M318.967 263.9H331.637V247.652H318.967V263.9Z" fill="#FAFAFA"/>
<path d="M392.608 293.446H405.289V277.183H392.608V293.446Z" fill="#FAFAFA"/>
<path d="M368.058 293.446H380.738V277.183H368.058V293.446Z" fill="#FAFAFA"/>
<path d="M343.522 293.446H356.191V277.183H343.522V293.446Z" fill="#FAFAFA"/>
<path d="M318.967 293.446H331.637V277.183H318.967V293.446Z" fill="#FAFAFA"/>
<path d="M392.608 322.979H405.289V306.716H392.608V322.979Z" fill="#FAFAFA"/>
<path d="M368.058 322.979H380.738V306.716H368.058V322.979Z" fill="#FAFAFA"/>
<path d="M343.522 322.979H356.191V306.716H343.522V322.979Z" fill="#FAFAFA"/>
<path d="M368.058 238.377H380.738V222.128H368.058V238.377Z" fill="#FAFAFA"/>
<path d="M343.522 238.377H356.191V222.128H343.522V238.377Z" fill="#FAFAFA"/>
<path d="M318.967 322.979H331.637V306.716H318.967V322.979Z" fill="#FAFAFA"/>
<path d="M392.608 352.51H405.289V336.261H392.608V352.51Z" fill="#FAFAFA"/>
<path d="M368.058 352.51H380.738V336.261H368.058V352.51Z" fill="#FAFAFA"/>
<path d="M343.522 352.51H356.191V336.261H343.522V352.51Z" fill="#FAFAFA"/>
<path d="M318.967 352.51H331.637V336.261H318.967V352.51Z" fill="#FAFAFA"/>
<path d="M392.608 382.057H405.289V365.794H392.608V382.057Z" fill="#FAFAFA"/>
<path d="M368.058 382.057H380.738V365.794H368.058V382.057Z" fill="#FAFAFA"/>
<path d="M343.522 382.057H356.191V365.794H343.522V382.057Z" fill="#FAFAFA"/>
<path d="M318.967 382.057H331.637V365.794H318.967V382.057Z" fill="#FAFAFA"/>
<path d="M392.608 411.588H405.289V395.325H392.608V411.588Z" fill="#FAFAFA"/>
<path d="M368.058 411.588H380.738V395.325H368.058V411.588Z" fill="#FAFAFA"/>
<path d="M343.522 411.588H356.191V395.325H343.522V411.588Z" fill="#FAFAFA"/>
<path d="M318.967 411.588H331.637V395.325H318.967V411.588Z" fill="#FAFAFA"/>
<path d="M392.608 441.119H405.289V424.857H392.608V441.119Z" fill="#FAFAFA"/>
<path d="M368.058 441.119H380.738V424.857H368.058V441.119Z" fill="#FAFAFA"/>
<path d="M343.522 441.119H356.191V424.857H343.522V441.119Z" fill="#FAFAFA"/>
<path d="M318.967 441.119H331.637V424.857H318.967V441.119Z" fill="#FAFAFA"/>
<path d="M413.676 236.381H310.586V239.698H413.676V236.381Z" fill="#F5F5F5"/>
<path d="M334.215 208.859V176.348H331.628V208.859H334.215Z" fill="#EBEBEB"/>
<path d="M392.605 208.845V176.333H390.019V208.845H392.605Z" fill="#EBEBEB"/>
<path d="M363.41 208.845V176.333H360.824V208.845H363.41Z" fill="#EBEBEB"/>
<path d="M395.209 205.527H329.055V208.844H395.209V205.527Z" fill="#F5F5F5"/>
<path d="M395.209 174.675H329.055V177.992H395.209V174.675Z" fill="#F5F5F5"/>
<path d="M334.227 177.992V145.48H331.64V177.992H334.227Z" fill="#EBEBEB"/>
<path d="M392.605 177.992V145.48H390.019V177.992H392.605Z" fill="#EBEBEB"/>
<path d="M363.422 177.992V145.48H360.835V177.992H363.422Z" fill="#EBEBEB"/>
<path d="M395.209 143.836H329.055V147.153H395.209V143.836Z" fill="#F5F5F5"/>
<path d="M334.227 147.152V114.641H331.64V147.152H334.227Z" fill="#EBEBEB"/>
<path d="M392.621 147.152V114.641H390.035V147.152H392.621Z" fill="#EBEBEB"/>
<path d="M363.422 147.152V114.641H360.835V147.152H363.422Z" fill="#EBEBEB"/>
<path d="M395.209 112.981H329.055V116.298H395.209V112.981Z" fill="#F5F5F5"/>
<path d="M392.605 116.299V83.7871H390.019V116.299H392.605Z" fill="#EBEBEB"/>
<path d="M363.41 116.299V83.7871H360.824V116.299H363.41Z" fill="#EBEBEB"/>
<path d="M345.374 155.263V148.376C345.353 148.176 345.277 147.993 345.159 147.86C345.041 147.727 344.889 147.654 344.733 147.654C344.576 147.654 344.424 147.727 344.306 147.86C344.188 147.993 344.112 148.176 344.091 148.376V155.938C344.094 156.157 344.163 156.366 344.284 156.52C344.405 156.675 344.567 156.764 344.738 156.767C346.766 157.02 348.234 160.253 346.557 162.39C346.188 162.815 345.732 163.098 345.243 163.205C344.753 163.312 344.25 163.239 343.792 162.995C343.333 162.751 342.938 162.346 342.652 161.826C342.365 161.305 342.199 160.692 342.173 160.056C342.086 159.016 340.803 159.002 340.891 160.056C341.209 164.133 344.935 166.845 347.467 163.556C349.823 160.506 348.201 156.177 345.374 155.263Z" fill="#EBEBEB"/>
<path d="M250.987 105.827V120.754L238.712 105.054L238.109 105.827H237.254V247.511H252.664V105.827H250.987ZM238.931 213.917L249.715 227.748H238.931V213.917ZM238.931 178.777L249.715 192.608H238.931V178.777ZM238.931 143.637L249.715 157.483H238.931V143.637ZM238.931 108.497L249.715 122.329H238.931V108.497ZM249.715 124.521L238.931 138.324V124.493L249.715 124.521ZM250.932 126.067V139.899H240.136L250.932 126.067ZM249.715 159.661L238.931 173.478V159.633L249.715 159.661ZM250.932 161.221V175.053H240.136L250.932 161.221ZM249.715 194.815L238.931 208.618V194.787L249.715 194.815ZM250.932 196.361V210.193H240.136L250.932 196.361ZM249.715 229.969L238.931 243.772V229.941L249.715 229.969ZM240.136 245.347L250.932 231.515V245.347H240.136ZM250.932 226.23L240.136 212.385H250.987L250.932 226.23ZM250.932 191.09L240.136 177.259H250.987L250.932 191.09ZM250.932 155.95L240.136 142.119H250.987L250.932 155.95Z" fill="#F0F0F0"/>
<path d="M238.93 59.1484V86.6138H240.639V76.0718L249.407 87.3166L250.01 86.5435H250.986V59.1484H238.93ZM248.005 61.3412L240.639 70.7868V61.3412H248.005ZM249.21 83.9712L241.889 74.4975H249.243L249.21 83.9712ZM241.856 72.3329L249.21 62.8873V72.3329H241.856Z" fill="#F0F0F0"/>
<path d="M210.827 105.826H190.277V132.181H210.827V105.826Z" fill="#E6E6E6"/>
<path d="M345.014 143.849H343.874V93.1628L248.16 52.4706H241.836L190.587 93.2611L189.984 92.0242L241.507 51.0088H248.346L248.434 51.0369L345.014 92.1085V143.849Z" fill="#E6E6E6"/>
<path d="M333.305 106.966H334.488L346.544 91.5039H189.422V106.881H333.305V106.966ZM335.015 93.7388H342.38L335.015 103.17V93.7388ZM191.132 104.731V95.285L198.497 104.731H191.132ZM199.702 103.17L192.337 93.7388H199.702V103.17ZM201.412 93.7388H208.777L201.412 103.17V93.7388ZM209.983 104.731H202.618L209.983 95.285V104.731ZM211.693 104.731V95.285L219.047 104.731H211.693ZM220.296 103.17L212.942 93.7388H220.296V103.17ZM222.006 93.7388H229.371L222.006 103.17V93.7388ZM230.577 104.731H223.223L230.577 95.285V104.731ZM232.286 104.731V95.285L239.652 104.731H232.286ZM240.857 103.17L233.448 93.7388H240.813L240.857 103.17ZM242.567 93.7388H249.888L242.534 103.17L242.567 93.7388ZM251.138 104.731H243.773L251.138 95.285V104.731ZM252.847 104.731V95.285L260.202 104.731H252.847ZM261.407 103.17L254.053 93.7388H261.407V103.17ZM263.117 93.7388H270.482L263.04 103.17L263.117 93.7388ZM271.688 104.731H264.323L271.688 95.285V104.731ZM273.397 104.731V95.285L280.763 104.731H273.397ZM281.968 103.17L274.603 93.7388H281.968V103.17ZM283.678 93.7388H291.032L283.678 103.17V93.7388ZM292.249 104.731H284.883L292.249 95.285V104.731ZM293.947 104.731V95.285L301.313 104.731H293.947ZM302.496 103.17L295.142 93.7388H302.496V103.17ZM304.206 93.7388H311.571L304.206 103.17V93.7388ZM312.777 104.731H305.412L312.777 95.285V104.731ZM314.486 93.7388H321.841L314.486 103.17V93.7388ZM323.057 104.731H315.648L323.013 95.285L323.057 104.731ZM324.767 104.731V95.285L332.121 104.731H324.767ZM325.973 93.7388H333.327V103.17L325.973 93.7388Z" fill="#F0F0F0"/>
<path d="M260.269 111.802H228.66L229.811 94.7517C229.962 92.5295 230.757 90.4607 232.04 88.9539C233.322 87.4471 234.998 86.6119 236.738 86.6133H251.797C253.501 86.6125 255.147 87.4155 256.42 88.8695C257.693 90.3234 258.505 92.3269 258.702 94.4987L260.269 111.802Z" fill="#F0F0F0"/>
<path d="M239.822 93.6963H233.75V101.483H239.822V93.6963Z" fill="#FAFAFA"/>
<path d="M247.498 93.6963H241.426V101.483H247.498V93.6963Z" fill="#FAFAFA"/>
<path d="M255.17 93.6963H249.098V101.483H255.17V93.6963Z" fill="#FAFAFA"/>
<path d="M244.959 60.2583C247.247 60.2583 249.102 57.8794 249.102 54.945C249.102 52.0106 247.247 49.6318 244.959 49.6318C242.671 49.6318 240.816 52.0106 240.816 54.945C240.816 57.8794 242.671 60.2583 244.959 60.2583Z" fill="#E6E6E6"/>
<path d="M344.735 152.915C343.797 152.915 342.896 152.436 342.232 151.585C341.568 150.734 341.195 149.579 341.195 148.375V143.849H348.275V148.375C348.275 149.579 347.903 150.734 347.239 151.585C346.575 152.436 345.674 152.915 344.735 152.915V152.915Z" fill="#E6E6E6"/>
<path d="M351.069 118.661V112.771C351.069 112.585 351.127 112.406 351.23 112.274C351.333 112.142 351.472 112.068 351.617 112.068C351.763 112.068 351.902 112.142 352.005 112.274C352.108 112.406 352.165 112.585 352.165 112.771V119.237C352.163 119.422 352.104 119.599 352.002 119.73C351.9 119.861 351.762 119.936 351.617 119.94C349.886 120.165 348.625 122.92 350.061 124.761C350.376 125.13 350.767 125.377 351.188 125.471C351.608 125.566 352.041 125.505 352.435 125.296C352.83 125.086 353.17 124.737 353.415 124.289C353.66 123.841 353.801 123.312 353.82 122.765C353.897 121.866 354.993 121.866 354.916 122.765C354.642 126.251 351.464 128.57 349.294 125.759C347.124 122.948 348.658 119.476 351.069 118.661Z" fill="#EBEBEB"/>
<path d="M430.367 76.3667V197.558H443.519V76.3667H442.785L442.27 75.7061L431.825 89.1296V76.3667H430.367ZM442.094 180.648H432.921L442.149 168.813L442.094 180.648ZM442.094 150.582H432.921L442.149 138.747L442.094 150.582ZM442.094 120.517H432.921L442.149 108.696L442.094 120.517ZM442.094 90.4649H432.921L442.149 78.6297L442.094 90.4649ZM442.094 92.3343V104.169L432.921 92.3343H442.094ZM441.053 105.491H431.825V93.6556L441.053 105.491ZM442.094 122.358V134.179L432.921 122.4L442.094 122.358ZM441.053 135.514H431.825V123.693L441.053 135.514ZM442.094 152.382V164.217L432.921 152.452L442.094 152.382ZM441.053 165.538H431.825V153.717L441.053 165.538ZM442.094 182.405V194.24L432.921 182.518L442.094 182.405ZM431.825 195.674V183.839L441.042 195.674H431.825ZM431.825 167.492H441.042L431.825 179.327V167.492ZM431.825 137.426H441.042L431.825 149.261V137.426ZM431.825 107.36H441.042L431.825 119.195V107.36Z" fill="#EBEBEB"/>
<path d="M431.828 36.4453V59.9328H432.562L433.078 60.5934L440.596 50.9229V59.9328H442.054V36.4453H431.828ZM440.596 38.3148V46.3829L434.305 38.3007L440.596 38.3148ZM433.264 49.5595H439.566L433.297 57.6276L433.264 49.5595ZM433.264 47.6901V39.6501L439.599 47.7885L433.264 47.6901Z" fill="#EBEBEB"/>
<path d="M466.147 98.9121H483.727V76.3668H466.147V98.9121Z" fill="#F0F0F0"/>
<path d="M351.387 108.891H352.362V65.5424L434.222 30.7256H439.637L483.466 65.6267L483.981 64.5584L439.911 29.4746H434.069L433.992 29.5168L351.387 64.6428V108.891Z" fill="#E6E6E6"/>
<path d="M361.39 77.3084H484.427V64.1523H350.102L360.382 77.3366H361.39V77.3084ZM359.933 74.1038L353.631 66.0639H359.933V74.1038ZM476.7 75.425L482.992 67.357V75.425H476.7ZM475.659 66.0639H481.961L475.659 74.1038V66.0639ZM474.202 74.1319L467.911 66.0639H474.202V74.1319ZM466.869 67.3852L473.171 75.4531H466.891L466.869 67.3852ZM459.121 75.4531L465.412 67.3852V75.4531H459.121ZM458.123 66.0639H464.425L458.123 74.1038V66.0639ZM456.666 74.1319L450.331 66.0639H456.622L456.666 74.1319ZM449.333 67.3852L455.635 75.4531H449.333V67.3852ZM441.585 75.4531L447.876 67.3852V75.4531H441.585ZM440.543 66.0639H446.845L440.543 74.1319V66.0639ZM439.086 74.1319L432.751 66.0639H439.042L439.086 74.1319ZM431.754 67.3852L438.056 75.4531H431.71L431.754 67.3852ZM424.005 75.4531L430.296 67.3852V75.4531H424.005ZM422.964 66.0639H429.266L422.964 74.1319V66.0639ZM421.506 74.1319L415.16 66.0639H421.462L421.506 74.1319ZM414.174 67.3852L420.476 75.4531H414.174V67.3852ZM406.414 75.4531L412.716 67.3852V75.4531H406.414ZM405.384 66.0639H411.686L405.384 74.1319V66.0639ZM403.926 74.1319L397.58 66.0639H403.882L403.926 74.1319ZM396.594 67.3852L402.896 75.4531H396.594V67.3852ZM388.834 75.4531L395.136 67.3852V75.4531H388.834ZM387.76 66.0639H394.062L387.76 74.1319V66.0639ZM386.302 74.1319L380 66.0639H386.302V74.1319ZM378.97 67.3852L385.272 75.4531H378.97V67.3852ZM377.513 74.1319L371.211 66.0639H377.513V74.1319ZM370.18 67.3852L376.471 75.4531H370.18V67.3852ZM362.421 75.4531L368.723 67.3852V75.4531H362.421ZM361.39 74.1319V66.0639H367.681L361.39 74.1319Z" fill="#EBEBEB"/>
<path d="M423.867 81.5253H450.906L449.919 66.9352C449.801 65.0223 449.125 63.2369 448.026 61.9345C446.927 60.6321 445.486 59.9083 443.99 59.9072H431.112C429.654 59.9084 428.246 60.5961 427.157 61.8398C426.069 63.0835 425.373 64.7966 425.204 66.6541L423.867 81.5253Z" fill="#EBEBEB"/>
<path d="M441.344 72.6406H446.539V65.9779H441.344V72.6406Z" fill="#FAFAFA"/>
<path d="M434.781 72.6406H439.977V65.9779H434.781V72.6406Z" fill="#FAFAFA"/>
<path d="M428.231 72.6406H433.426V65.9779H428.231V72.6406Z" fill="#FAFAFA"/>
<path d="M433.426 32.8477C433.426 33.7457 433.633 34.6234 434.022 35.3701C434.411 36.1167 434.964 36.6986 435.611 37.0422C436.258 37.3858 436.97 37.4757 437.656 37.3006C438.343 37.1254 438.974 36.693 439.469 36.058C439.964 35.4231 440.301 34.6141 440.438 33.7334C440.575 32.8528 440.504 31.9399 440.236 31.1103C439.969 30.2807 439.515 29.5716 438.933 29.0728C438.35 28.5739 437.666 28.3076 436.966 28.3076C436.501 28.3076 436.041 28.4251 435.611 28.6532C435.182 28.8814 434.791 29.2158 434.463 29.6374C434.134 30.059 433.873 30.5595 433.695 31.1103C433.517 31.6611 433.426 32.2515 433.426 32.8477V32.8477Z" fill="#E6E6E6"/>
<path d="M351.623 116.665C352.019 116.667 352.412 116.568 352.779 116.375C353.146 116.181 353.48 115.897 353.761 115.538C354.042 115.178 354.265 114.752 354.417 114.282C354.569 113.812 354.648 113.308 354.648 112.799V108.92H348.598V112.799C348.601 113.826 348.921 114.809 349.488 115.533C350.054 116.258 350.822 116.665 351.623 116.665V116.665Z" fill="#E6E6E6"/>
</g>
<g opacity="0.7">
<path d="M256.771 521.269C395.122 521.269 507.277 513.687 507.277 504.335C507.277 494.983 395.122 487.401 256.771 487.401C118.421 487.401 6.26562 494.983 6.26562 504.335C6.26562 513.687 118.421 521.269 256.771 521.269Z" fill="#F5F5F5"/>
</g>
<path d="M179.789 422.285L425.152 422.285V400.34L179.789 400.34V422.285Z" fill="#407BFF"/>
<path opacity="0.2" d="M179.789 422.285L425.152 422.285V400.34L179.789 400.34V422.285Z" fill="black"/>
<path d="M462.245 405.248H472.865C478.841 405.412 484.525 408.277 488.701 413.228C492.878 418.18 495.216 424.827 495.216 431.748C495.216 438.669 492.878 445.316 488.701 450.268C484.525 455.219 478.841 458.083 472.865 458.248H462.245C456.269 458.083 450.585 455.219 446.409 450.268C442.233 445.316 439.895 438.669 439.895 431.748C439.895 424.827 442.233 418.18 446.409 413.228C450.585 408.277 456.269 405.412 462.245 405.248V405.248Z" fill="#263238"/>
<path opacity="0.5" d="M483.383 441.899C488.219 428.382 482.675 412.884 471 407.285C459.325 401.686 445.94 408.105 441.104 421.623C436.268 435.14 441.812 450.638 453.487 456.237C465.162 461.836 478.547 455.417 483.383 441.899Z" fill="black"/>
<path d="M281.313 405.248H291.92C294.972 405.164 298.007 405.787 300.847 407.081C303.688 408.375 306.276 410.314 308.459 412.783C310.643 415.252 312.379 418.202 313.563 421.458C314.748 424.715 315.358 428.214 315.358 431.748C315.358 435.282 314.748 438.78 313.563 442.037C312.379 445.294 310.643 448.244 308.459 450.713C306.276 453.182 303.688 455.12 300.847 456.414C298.007 457.708 294.972 458.332 291.92 458.248H281.313C278.262 458.332 275.227 457.708 272.386 456.414C269.546 455.12 266.958 453.182 264.774 450.713C262.59 448.244 260.855 445.294 259.67 442.037C258.485 438.78 257.875 435.282 257.875 431.748C257.875 428.214 258.485 424.715 259.67 421.458C260.855 418.202 262.59 415.252 264.774 412.783C266.958 410.314 269.546 408.375 272.386 407.081C275.227 405.787 278.262 405.164 281.313 405.248V405.248Z" fill="#263238"/>
<path opacity="0.5" d="M302.453 441.884C307.289 428.366 301.745 412.869 290.07 407.27C278.395 401.67 265.01 408.09 260.174 421.607C255.338 435.125 260.883 450.622 272.558 456.221C284.233 461.82 297.617 455.401 302.453 441.884Z" fill="black"/>
<path d="M398.372 405.248H408.979C412.03 405.164 415.066 405.787 417.906 407.081C420.746 408.375 423.334 410.314 425.518 412.783C427.702 415.252 429.437 418.202 430.622 421.458C431.807 424.715 432.417 428.214 432.417 431.748C432.417 435.282 431.807 438.78 430.622 442.037C429.437 445.294 427.702 448.244 425.518 450.713C423.334 453.182 420.746 455.12 417.906 456.414C415.066 457.708 412.03 458.332 408.979 458.248H398.372C395.32 458.332 392.285 457.708 389.445 456.414C386.605 455.12 384.016 453.182 381.833 450.713C379.649 448.244 377.914 445.294 376.729 442.037C375.544 438.78 374.934 435.282 374.934 431.748C374.934 428.214 375.544 424.715 376.729 421.458C377.914 418.202 379.649 415.252 381.833 412.783C384.016 410.314 386.605 408.375 389.445 407.081C392.285 405.787 395.32 405.164 398.372 405.248V405.248Z" fill="#263238"/>
<path opacity="0.5" d="M398.372 405.248H408.979C412.03 405.164 415.066 405.787 417.906 407.081C420.746 408.375 423.334 410.314 425.518 412.783C427.702 415.252 429.437 418.202 430.622 421.458C431.807 424.715 432.417 428.214 432.417 431.748C432.417 435.282 431.807 438.78 430.622 442.037C429.437 445.294 427.702 448.244 425.518 450.713C423.334 453.182 420.746 455.12 417.906 456.414C415.066 457.708 412.03 458.332 408.979 458.248H398.372C395.32 458.332 392.285 457.708 389.445 456.414C386.605 455.12 384.016 453.182 381.833 450.713C379.649 448.244 377.914 445.294 376.729 442.037C375.544 438.78 374.934 435.282 374.934 431.748C374.934 428.214 375.544 424.715 376.729 421.458C377.914 418.202 379.649 415.252 381.833 412.783C384.016 410.314 386.605 408.375 389.445 407.081C392.285 405.787 395.32 405.164 398.372 405.248V405.248Z" fill="black"/>
<path d="M342.672 405.248H353.28C356.331 405.164 359.366 405.787 362.207 407.081C365.047 408.375 367.635 410.314 369.819 412.783C372.003 415.252 373.738 418.202 374.923 421.458C376.107 424.715 376.718 428.214 376.718 431.748C376.718 435.282 376.107 438.78 374.923 442.037C373.738 445.294 372.003 448.244 369.819 450.713C367.635 453.182 365.047 455.12 362.207 456.414C359.366 457.708 356.331 458.332 353.28 458.248H342.672C339.621 458.332 336.586 457.708 333.746 456.414C330.905 455.12 328.317 453.182 326.133 450.713C323.95 448.244 322.214 445.294 321.029 442.037C319.845 438.78 319.234 435.282 319.234 431.748C319.234 428.214 319.845 424.715 321.029 421.458C322.214 418.202 323.95 415.252 326.133 412.783C328.317 410.314 330.905 408.375 333.746 407.081C336.586 405.787 339.621 405.164 342.672 405.248V405.248Z" fill="#263238"/>
<path opacity="0.5" d="M342.672 405.248H353.28C356.331 405.164 359.366 405.787 362.207 407.081C365.047 408.375 367.635 410.314 369.819 412.783C372.003 415.252 373.738 418.202 374.923 421.458C376.107 424.715 376.718 428.214 376.718 431.748C376.718 435.282 376.107 438.78 374.923 442.037C373.738 445.294 372.003 448.244 369.819 450.713C367.635 453.182 365.047 455.12 362.207 456.414C359.366 457.708 356.331 458.332 353.28 458.248H342.672C339.621 458.332 336.586 457.708 333.746 456.414C330.905 455.12 328.317 453.182 326.133 450.713C323.95 448.244 322.214 445.294 321.029 442.037C319.845 438.78 319.234 435.282 319.234 431.748C319.234 428.214 319.845 424.715 321.029 421.458C322.214 418.202 323.95 415.252 326.133 412.783C328.317 410.314 330.905 408.375 333.746 407.081C336.586 405.787 339.621 405.164 342.672 405.248V405.248Z" fill="black"/>
<path d="M213.122 405.248H223.729C226.78 405.164 229.816 405.787 232.656 407.081C235.496 408.375 238.084 410.314 240.268 412.783C242.452 415.252 244.187 418.202 245.372 421.458C246.557 424.715 247.167 428.214 247.167 431.748C247.167 435.282 246.557 438.78 245.372 442.037C244.187 445.294 242.452 448.244 240.268 450.713C238.084 453.182 235.496 455.12 232.656 456.414C229.816 457.708 226.78 458.332 223.729 458.248H213.122C210.07 458.332 207.035 457.708 204.195 456.414C201.355 455.12 198.766 453.182 196.583 450.713C194.399 448.244 192.664 445.294 191.479 442.037C190.294 438.78 189.684 435.282 189.684 431.748C189.684 428.214 190.294 424.715 191.479 421.458C192.664 418.202 194.399 415.252 196.583 412.783C198.766 410.314 201.355 408.375 204.195 407.081C207.035 405.787 210.07 405.164 213.122 405.248V405.248Z" fill="#263238"/>
<path opacity="0.5" d="M213.122 405.248H223.729C226.78 405.164 229.816 405.787 232.656 407.081C235.496 408.375 238.084 410.314 240.268 412.783C242.452 415.252 244.187 418.202 245.372 421.458C246.557 424.715 247.167 428.214 247.167 431.748C247.167 435.282 246.557 438.78 245.372 442.037C244.187 445.294 242.452 448.244 240.268 450.713C238.084 453.182 235.496 455.12 232.656 456.414C229.816 457.708 226.78 458.332 223.729 458.248H213.122C210.07 458.332 207.035 457.708 204.195 456.414C201.355 455.12 198.766 453.182 196.583 450.713C194.399 448.244 192.664 445.294 191.479 442.037C190.294 438.78 189.684 435.282 189.684 431.748C189.684 428.214 190.294 424.715 191.479 421.458C192.664 418.202 194.399 415.252 196.583 412.783C198.766 410.314 201.355 408.375 204.195 407.081C207.035 405.787 210.07 405.164 213.122 405.248V405.248Z" fill="black"/>
<path d="M234.27 441.887C239.106 428.369 233.562 412.872 221.887 407.272C210.212 401.673 196.827 408.092 191.991 421.61C187.155 435.128 192.699 450.625 204.374 456.224C216.049 461.823 229.434 455.404 234.27 441.887Z" fill="#263238"/>
<path d="M197.684 431.754C197.684 435.304 198.593 438.775 200.297 441.727C202 444.679 204.422 446.98 207.255 448.338C210.088 449.697 213.205 450.053 216.212 449.36C219.22 448.667 221.982 446.958 224.151 444.447C226.319 441.937 227.796 438.738 228.394 435.256C228.992 431.774 228.685 428.164 227.512 424.884C226.338 421.604 224.351 418.801 221.801 416.828C219.252 414.856 216.254 413.803 213.188 413.803C211.149 413.793 209.129 414.251 207.244 415.149C205.36 416.048 203.647 417.37 202.206 419.039C200.764 420.707 199.623 422.69 198.847 424.873C198.07 427.055 197.675 429.394 197.684 431.754V431.754ZM222.361 435.509L221.689 434.671C221.524 434.476 221.399 434.24 221.325 433.981C221.251 433.721 221.23 433.445 221.263 433.175C221.401 432.239 221.401 431.283 221.263 430.348C221.23 430.077 221.251 429.802 221.325 429.542C221.399 429.283 221.524 429.047 221.689 428.852L222.361 428.014C222.566 427.763 222.827 427.583 223.115 427.492C223.403 427.401 223.707 427.404 223.993 427.5C224.28 427.596 224.539 427.781 224.741 428.035C224.943 428.289 225.08 428.603 225.139 428.942C225.466 430.817 225.466 432.75 225.139 434.626C225.075 434.961 224.933 435.27 224.729 435.519C224.525 435.767 224.266 435.947 223.98 436.038C223.694 436.129 223.392 436.127 223.107 436.034C222.821 435.941 222.564 435.759 222.361 435.509V435.509ZM214.906 442.913L215.203 441.791C215.28 441.522 215.408 441.276 215.578 441.072C215.748 440.867 215.956 440.709 216.185 440.61C216.906 440.277 217.581 439.823 218.188 439.263C218.368 439.097 218.575 438.977 218.798 438.91C219.021 438.843 219.253 438.831 219.48 438.874L220.488 439.144C220.78 439.222 221.048 439.393 221.262 439.637C221.476 439.881 221.628 440.189 221.7 440.527C221.772 440.864 221.762 441.218 221.671 441.55C221.581 441.881 221.412 442.177 221.185 442.405C219.952 443.661 218.516 444.622 216.96 445.232C216.68 445.329 216.382 445.338 216.098 445.257C215.814 445.176 215.554 445.009 215.344 444.773C215.134 444.536 214.983 444.239 214.906 443.912C214.829 443.585 214.829 443.24 214.906 442.913V442.913ZM217.012 418.306C218.57 418.91 220.007 419.872 221.237 421.133C221.46 421.361 221.625 421.656 221.714 421.986C221.803 422.315 221.811 422.666 221.739 423.001C221.667 423.336 221.517 423.642 221.306 423.885C221.094 424.128 220.829 424.299 220.539 424.379L219.531 424.648C219.305 424.699 219.071 424.69 218.847 424.623C218.624 424.556 218.416 424.431 218.239 424.259C217.629 423.705 216.955 423.252 216.237 422.913C216.008 422.817 215.8 422.662 215.63 422.46C215.46 422.258 215.332 422.014 215.255 421.746L214.958 420.624C214.872 420.294 214.866 419.943 214.941 419.61C215.015 419.276 215.167 418.972 215.38 418.732C215.593 418.491 215.859 418.323 216.149 418.245C216.439 418.167 216.742 418.183 217.025 418.291L217.012 418.306ZM211.301 420.624L211.004 421.746C210.927 422.014 210.799 422.258 210.629 422.46C210.459 422.662 210.251 422.817 210.022 422.913C209.304 423.252 208.63 423.705 208.02 424.259C207.843 424.431 207.635 424.556 207.412 424.623C207.188 424.69 206.955 424.699 206.728 424.648L205.72 424.379C205.43 424.299 205.165 424.128 204.953 423.885C204.742 423.642 204.592 423.336 204.52 423.001C204.448 422.666 204.457 422.315 204.545 421.986C204.634 421.656 204.799 421.361 205.022 421.133C206.252 419.872 207.689 418.91 209.247 418.306C209.527 418.201 209.827 418.186 210.114 418.263C210.4 418.34 210.664 418.505 210.876 418.741C211.088 418.978 211.241 419.276 211.318 419.605C211.395 419.934 211.394 420.281 211.314 420.609L211.301 420.624ZM205.668 439.144L206.676 438.874C206.903 438.831 207.135 438.843 207.358 438.91C207.58 438.977 207.788 439.097 207.968 439.263C208.575 439.823 209.25 440.277 209.971 440.61C210.2 440.709 210.407 440.867 210.577 441.072C210.747 441.276 210.876 441.522 210.953 441.791L211.25 442.913C211.332 443.247 211.333 443.6 211.254 443.934C211.175 444.268 211.019 444.571 210.802 444.81C210.585 445.049 210.316 445.214 210.024 445.289C209.731 445.363 209.427 445.344 209.144 445.232C207.588 444.622 206.152 443.661 204.919 442.405C204.693 442.17 204.527 441.867 204.44 441.53C204.354 441.193 204.35 440.835 204.429 440.495C204.508 440.155 204.667 439.848 204.888 439.607C205.109 439.365 205.384 439.2 205.681 439.129L205.668 439.144ZM201.082 434.656C200.754 432.78 200.754 430.847 201.082 428.971C201.14 428.633 201.278 428.319 201.48 428.065C201.682 427.811 201.94 427.625 202.227 427.53C202.514 427.434 202.818 427.431 203.105 427.522C203.393 427.613 203.654 427.793 203.859 428.044L204.544 428.882C204.706 429.079 204.827 429.316 204.898 429.575C204.97 429.834 204.99 430.108 204.958 430.378C204.837 431.315 204.837 432.268 204.958 433.205C204.99 433.474 204.97 433.749 204.898 434.007C204.827 434.266 204.706 434.503 204.544 434.701L203.859 435.539C203.653 435.785 203.392 435.962 203.105 436.049C202.818 436.137 202.516 436.131 202.231 436.034C201.946 435.937 201.69 435.752 201.49 435.499C201.289 435.245 201.153 434.933 201.095 434.596L201.082 434.656Z" fill="#407BFF"/>
<path d="M363.817 441.89C368.653 428.373 363.109 412.875 351.433 407.276C339.758 401.677 326.374 408.096 321.538 421.614C316.702 435.132 322.246 450.629 333.921 456.228C345.596 461.827 358.981 455.408 363.817 441.89Z" fill="#263238"/>
<path d="M327.235 431.756C327.247 435.288 328.164 438.737 329.868 441.667C331.572 444.597 333.988 446.876 336.81 448.218C339.632 449.559 342.735 449.903 345.725 449.205C348.716 448.506 351.461 446.798 353.614 444.295C355.767 441.792 357.231 438.607 357.821 435.141C358.412 431.675 358.102 428.085 356.932 424.823C355.761 421.561 353.782 418.773 351.245 416.812C348.707 414.851 345.725 413.805 342.674 413.805C340.641 413.805 338.628 414.27 336.751 415.173C334.873 416.076 333.168 417.399 331.734 419.067C330.299 420.735 329.163 422.714 328.391 424.892C327.619 427.069 327.226 429.402 327.235 431.756ZM351.912 435.51L351.24 434.673C351.077 434.476 350.954 434.24 350.88 433.981C350.806 433.722 350.784 433.447 350.814 433.177C350.951 432.241 350.951 431.285 350.814 430.35C350.784 430.079 350.806 429.804 350.88 429.546C350.954 429.287 351.077 429.05 351.24 428.854L351.86 427.956C352.065 427.705 352.326 427.525 352.614 427.434C352.902 427.343 353.206 427.346 353.493 427.442C353.779 427.537 354.038 427.723 354.24 427.977C354.442 428.231 354.579 428.545 354.638 428.884C354.982 430.757 354.982 432.694 354.638 434.568C354.581 434.908 354.445 435.223 354.244 435.48C354.042 435.736 353.784 435.923 353.497 436.02C353.21 436.117 352.906 436.121 352.617 436.031C352.328 435.942 352.066 435.761 351.86 435.51H351.912ZM344.47 442.915L344.767 441.793C344.846 441.525 344.974 441.28 345.144 441.076C345.314 440.871 345.52 440.713 345.749 440.612C346.474 440.279 347.153 439.825 347.764 439.265C347.943 439.097 348.151 438.975 348.374 438.908C348.597 438.84 348.83 438.83 349.056 438.876L350.064 439.146C350.357 439.224 350.625 439.395 350.839 439.639C351.053 439.883 351.204 440.191 351.276 440.528C351.349 440.866 351.339 441.22 351.248 441.552C351.157 441.883 350.989 442.179 350.762 442.407C349.531 443.666 348.094 444.627 346.537 445.234C346.256 445.335 345.957 445.346 345.67 445.267C345.384 445.188 345.122 445.021 344.91 444.784C344.699 444.547 344.546 444.248 344.469 443.919C344.391 443.591 344.392 443.244 344.47 442.915V442.915ZM346.576 418.307C348.135 418.908 349.572 419.87 350.801 421.135C351.024 421.363 351.189 421.658 351.278 421.987C351.366 422.317 351.375 422.668 351.303 423.003C351.231 423.338 351.081 423.644 350.87 423.886C350.658 424.129 350.393 424.3 350.103 424.381L349.095 424.65C348.868 424.703 348.634 424.695 348.41 424.628C348.187 424.561 347.979 424.435 347.803 424.261C347.188 423.707 346.51 423.254 345.788 422.915C345.56 422.816 345.354 422.66 345.184 422.458C345.014 422.257 344.885 422.014 344.806 421.748L344.509 420.626C344.423 420.296 344.417 419.945 344.491 419.611C344.566 419.278 344.718 418.974 344.931 418.733C345.144 418.493 345.41 418.325 345.7 418.247C345.99 418.169 346.293 418.185 346.576 418.292V418.307ZM340.865 420.626L340.568 421.748C340.491 422.014 340.365 422.256 340.197 422.458C340.03 422.66 339.825 422.816 339.599 422.915C338.875 423.25 338.197 423.704 337.583 424.261C337.407 424.433 337.199 424.558 336.975 424.625C336.752 424.692 336.518 424.701 336.291 424.65L335.297 424.381C335.007 424.3 334.742 424.129 334.53 423.886C334.318 423.644 334.168 423.338 334.096 423.003C334.024 422.668 334.033 422.317 334.122 421.987C334.21 421.658 334.375 421.363 334.599 421.135C335.827 419.87 337.264 418.908 338.824 418.307C339.102 418.21 339.398 418.2 339.681 418.28C339.964 418.36 340.223 418.526 340.432 418.762C340.64 418.997 340.79 419.293 340.867 419.618C340.943 419.943 340.942 420.286 340.865 420.611V420.626ZM335.245 439.146L336.24 438.876C336.467 438.833 336.699 438.845 336.921 438.912C337.144 438.979 337.352 439.099 337.532 439.265C338.141 439.829 338.821 440.283 339.547 440.612C339.774 440.714 339.978 440.873 340.146 441.077C340.313 441.281 340.44 441.526 340.516 441.793L340.813 442.915C340.899 443.248 340.903 443.601 340.827 443.936C340.75 444.271 340.595 444.575 340.379 444.815C340.162 445.054 339.893 445.22 339.6 445.294C339.308 445.368 339.003 445.347 338.72 445.234C337.163 444.627 335.727 443.666 334.496 442.407C334.265 442.176 334.094 441.874 334.004 441.537C333.914 441.199 333.908 440.839 333.986 440.497C334.064 440.156 334.223 439.847 334.446 439.605C334.669 439.363 334.945 439.199 335.245 439.131V439.146ZM330.645 434.658C330.318 432.782 330.318 430.849 330.645 428.973C330.702 428.631 330.84 428.314 331.043 428.058C331.245 427.801 331.506 427.614 331.795 427.518C332.084 427.422 332.39 427.42 332.68 427.513C332.97 427.607 333.231 427.791 333.436 428.046L334.108 428.884C334.269 429.081 334.391 429.318 334.462 429.577C334.534 429.836 334.554 430.11 334.521 430.379C334.401 431.317 334.401 432.27 334.521 433.207C334.554 433.476 334.534 433.75 334.462 434.009C334.391 434.268 334.269 434.505 334.108 434.703L333.436 435.54C333.23 435.796 332.968 435.979 332.677 436.072C332.387 436.164 332.08 436.161 331.79 436.064C331.501 435.966 331.241 435.777 331.039 435.519C330.836 435.26 330.7 434.941 330.645 434.598V434.658Z" fill="#407BFF"/>
<path d="M419.512 441.892C424.348 428.375 418.804 412.877 407.129 407.278C395.454 401.679 382.069 408.098 377.233 421.616C372.397 435.134 377.941 450.631 389.616 456.23C401.291 461.829 414.676 455.41 419.512 441.892Z" fill="#263238"/>
<path d="M422.152 418.187H431.274V429.151H424.814C424.53 425.335 423.627 421.615 422.152 418.187Z" fill="#263238"/>
<path d="M371.951 429.151H369.096C368.837 425.341 367.96 421.621 366.512 418.187H374.626C373.146 421.614 372.238 425.334 371.951 429.151V429.151Z" fill="#263238"/>
<g opacity="0.8">
<path opacity="0.8" d="M422.16 418.187H431.282V429.151H424.822C424.538 425.335 423.635 421.615 422.16 418.187Z" fill="white"/>
<path opacity="0.8" d="M371.955 429.151H369.1C368.84 425.341 367.964 421.621 366.516 418.187H374.629C373.15 421.614 372.242 425.334 371.955 429.151V429.151Z" fill="white"/>
</g>
<path d="M382.93 431.756C382.943 435.288 383.859 438.737 385.563 441.667C387.267 444.597 389.683 446.876 392.505 448.218C395.328 449.559 398.43 449.903 401.421 449.205C404.411 448.506 407.156 446.798 409.309 444.295C411.462 441.792 412.926 438.607 413.517 435.141C414.107 431.675 413.798 428.085 412.627 424.823C411.457 421.561 409.478 418.773 406.94 416.812C404.403 414.851 401.42 413.805 398.369 413.805C396.336 413.805 394.323 414.27 392.446 415.173C390.568 416.076 388.864 417.399 387.429 419.067C385.995 420.735 384.859 422.714 384.087 424.892C383.314 427.069 382.921 429.402 382.93 431.756ZM407.607 435.51L406.935 434.673C406.77 434.478 406.645 434.242 406.571 433.982C406.497 433.723 406.476 433.447 406.509 433.177C406.647 432.241 406.647 431.285 406.509 430.35C406.476 430.079 406.497 429.803 406.571 429.544C406.645 429.285 406.77 429.048 406.935 428.854L407.607 428.016C407.812 427.765 408.073 427.585 408.361 427.494C408.649 427.403 408.953 427.406 409.24 427.502C409.526 427.597 409.785 427.782 409.987 428.037C410.189 428.291 410.326 428.605 410.385 428.943C410.712 430.819 410.712 432.752 410.385 434.628C410.321 434.963 410.179 435.272 409.975 435.52C409.771 435.769 409.512 435.949 409.226 436.04C408.94 436.13 408.638 436.129 408.353 436.036C408.068 435.943 407.81 435.761 407.607 435.51V435.51ZM400.165 442.915L400.462 441.793C400.541 441.525 400.67 441.28 400.839 441.076C401.009 440.871 401.216 440.713 401.444 440.612C402.169 440.279 402.848 439.825 403.46 439.265C403.638 439.096 403.846 438.973 404.069 438.906C404.292 438.839 404.525 438.829 404.752 438.876L405.759 439.146C406.052 439.224 406.32 439.395 406.534 439.639C406.748 439.883 406.9 440.191 406.972 440.528C407.044 440.866 407.034 441.22 406.943 441.552C406.852 441.883 406.684 442.179 406.457 442.407C405.226 443.666 403.789 444.627 402.232 445.234C401.951 445.335 401.652 445.346 401.366 445.267C401.079 445.188 400.817 445.021 400.606 444.784C400.394 444.547 400.242 444.248 400.164 443.919C400.087 443.591 400.087 443.244 400.165 442.915V442.915ZM402.245 418.292C403.805 418.893 405.242 419.855 406.47 421.12C406.694 421.348 406.859 421.643 406.947 421.972C407.036 422.302 407.045 422.653 406.973 422.988C406.901 423.323 406.751 423.629 406.539 423.871C406.327 424.114 406.062 424.285 405.772 424.366L404.765 424.635C404.538 424.689 404.304 424.682 404.08 424.615C403.856 424.547 403.648 424.421 403.473 424.246C402.858 423.692 402.179 423.239 401.457 422.9C401.229 422.801 401.023 422.645 400.854 422.443C400.684 422.242 400.555 421.999 400.475 421.733L400.178 420.611C400.095 420.282 400.092 419.933 400.168 419.602C400.243 419.27 400.396 418.969 400.608 418.731C400.821 418.492 401.086 418.326 401.374 418.248C401.663 418.171 401.964 418.186 402.245 418.292V418.292ZM396.535 420.611L396.237 421.733C396.161 421.999 396.034 422.241 395.867 422.443C395.699 422.645 395.495 422.801 395.268 422.9C394.545 423.235 393.866 423.689 393.253 424.246C393.076 424.418 392.868 424.543 392.645 424.61C392.421 424.677 392.188 424.686 391.961 424.635L390.966 424.366C390.676 424.285 390.411 424.114 390.199 423.871C389.988 423.629 389.838 423.323 389.766 422.988C389.694 422.653 389.703 422.302 389.791 421.972C389.88 421.643 390.045 421.348 390.268 421.12C391.497 419.855 392.934 418.893 394.493 418.292C394.775 418.186 395.076 418.171 395.364 418.248C395.653 418.326 395.917 418.492 396.13 418.731C396.343 418.969 396.495 419.27 396.571 419.602C396.647 419.933 396.643 420.282 396.56 420.611H396.535ZM390.914 439.131L391.909 438.861C392.136 438.818 392.368 438.83 392.591 438.897C392.814 438.964 393.021 439.084 393.201 439.25C393.811 439.814 394.49 440.268 395.217 440.597C395.443 440.699 395.648 440.858 395.815 441.062C395.983 441.266 396.109 441.511 396.186 441.778L396.483 442.9C396.568 443.233 396.573 443.586 396.496 443.921C396.419 444.256 396.264 444.56 396.048 444.8C395.832 445.04 395.562 445.205 395.27 445.279C394.977 445.353 394.673 445.332 394.39 445.219C392.833 444.612 391.396 443.651 390.165 442.392C389.938 442.158 389.771 441.855 389.685 441.518C389.598 441.18 389.595 440.821 389.676 440.482C389.757 440.142 389.918 439.836 390.141 439.597C390.365 439.358 390.642 439.197 390.94 439.131H390.914ZM386.315 434.643C385.987 432.767 385.987 430.834 386.315 428.958C386.372 428.617 386.509 428.3 386.712 428.043C386.915 427.786 387.175 427.599 387.464 427.503C387.753 427.407 388.06 427.405 388.349 427.498C388.639 427.592 388.901 427.776 389.106 428.031L389.777 428.869C389.939 429.066 390.06 429.303 390.132 429.562C390.203 429.821 390.223 430.095 390.191 430.365C390.07 431.302 390.07 432.255 390.191 433.192C390.223 433.461 390.203 433.735 390.132 433.994C390.06 434.253 389.939 434.49 389.777 434.688L389.106 435.525C388.9 435.772 388.64 435.949 388.354 436.037C388.068 436.125 387.766 436.122 387.482 436.026C387.197 435.931 386.941 435.747 386.74 435.496C386.539 435.244 386.401 434.934 386.341 434.598L386.315 434.643Z" fill="#407BFF"/>
<path d="M257.048 418.187H295.098V287.264H257.048V418.187Z" fill="#407BFF"/>
<path opacity="0.2" d="M257.048 418.187H295.098V287.264H257.048V418.187Z" fill="black"/>
<path d="M197.048 287.341H256.829V418.263H236.868C234.679 413.12 231.29 408.79 227.085 405.761C222.88 402.733 218.027 401.128 213.075 401.128C208.124 401.128 203.271 402.733 199.066 405.761C194.861 408.79 191.472 413.12 189.283 418.263H147.5V344.634L197.048 287.341Z" fill="#407BFF"/>
<path d="M159.441 365.786V354.342C159.441 353.081 159.656 351.832 160.072 350.667C160.489 349.502 161.1 348.443 161.87 347.551L199.558 303.9C201.116 302.103 203.225 301.092 205.424 301.088H235.333V365.786H159.441Z" fill="#263238"/>
<path opacity="0.5" d="M159.441 365.786V354.342C159.441 353.081 159.656 351.832 160.072 350.667C160.489 349.502 161.1 348.443 161.87 347.551L199.558 303.9C201.116 302.103 203.225 301.092 205.424 301.088H235.333V365.786H159.441Z" fill="white"/>
<path d="M434.86 418.187H505.312V391.141H434.86V418.187Z" fill="#407BFF"/>
<path opacity="0.2" d="M434.86 418.187H505.312V391.141H434.86V418.187Z" fill="black"/>
<path d="M448.113 406.639H492.054C493.174 406.639 494.082 405.587 494.082 404.29V399.174C494.082 397.877 493.174 396.825 492.054 396.825H448.113C446.992 396.825 446.084 397.877 446.084 399.174V404.29C446.084 405.587 446.992 406.639 448.113 406.639Z" fill="white"/>
<path d="M193.507 371.843H201.259C201.878 371.895 202.457 372.216 202.879 372.742C203.301 373.268 203.536 373.959 203.536 374.678C203.536 375.396 203.301 376.087 202.879 376.613C202.457 377.139 201.878 377.46 201.259 377.512H193.507C192.889 377.46 192.31 377.139 191.888 376.613C191.465 376.087 191.23 375.396 191.23 374.678C191.23 373.959 191.465 373.268 191.888 372.742C192.31 372.216 192.889 371.895 193.507 371.843V371.843Z" fill="white"/>
<path d="M153.744 407.955H147.012C146.19 407.955 145.401 407.577 144.82 406.904C144.238 406.23 143.912 405.317 143.912 404.365V382.779C143.912 381.827 144.238 380.914 144.82 380.241C145.401 379.567 146.19 379.189 147.012 379.189H153.744C154.492 379.189 155.233 379.36 155.924 379.691C156.615 380.023 157.243 380.509 157.773 381.121C158.302 381.734 158.721 382.461 159.008 383.261C159.294 384.062 159.441 384.92 159.441 385.786V401.358C159.441 402.225 159.294 403.082 159.008 403.883C158.721 404.683 158.302 405.41 157.773 406.023C157.243 406.635 156.615 407.121 155.924 407.453C155.233 407.784 154.492 407.955 153.744 407.955V407.955Z" fill="#407BFF"/>
<path opacity="0.2" d="M153.744 407.955H147.012C146.19 407.955 145.401 407.577 144.82 406.904C144.238 406.23 143.912 405.317 143.912 404.365V382.779C143.912 381.827 144.238 380.914 144.82 380.241C145.401 379.567 146.19 379.189 147.012 379.189H153.744C154.492 379.189 155.233 379.36 155.924 379.691C156.615 380.023 157.243 380.509 157.773 381.121C158.302 381.734 158.721 382.461 159.008 383.261C159.294 384.062 159.441 384.92 159.441 385.786V401.358C159.441 402.225 159.294 403.082 159.008 403.883C158.721 404.683 158.302 405.41 157.773 406.023C157.243 406.635 156.615 407.121 155.924 407.453C155.233 407.784 154.492 407.955 153.744 407.955V407.955Z" fill="black"/>
<path d="M148.574 405.234C149.157 405.234 149.716 404.966 150.127 404.489C150.539 404.012 150.771 403.365 150.771 402.69V384.426C150.767 383.754 150.534 383.111 150.123 382.637C149.711 382.163 149.155 381.897 148.574 381.897C148.002 381.909 147.457 382.181 147.055 382.654C146.654 383.126 146.43 383.763 146.43 384.426V402.69C146.43 403.355 146.654 403.993 147.055 404.468C147.455 404.943 148.001 405.218 148.574 405.234V405.234Z" fill="white"/>
<path d="M164.996 358.231C165.579 358.231 166.137 357.963 166.549 357.486C166.961 357.009 167.192 356.363 167.192 355.688V337.423C167.192 336.748 166.961 336.102 166.549 335.625C166.137 335.148 165.579 334.88 164.996 334.88C164.416 334.884 163.86 335.153 163.451 335.63C163.042 336.106 162.812 336.751 162.813 337.423V355.688C162.812 356.36 163.042 357.005 163.451 357.481C163.86 357.957 164.416 358.227 164.996 358.231V358.231Z" fill="#263238"/>
<path d="M287.259 322.015H302.931C306.912 322.02 310.741 323.779 313.643 326.935C316.544 330.091 318.3 334.406 318.553 339.006C318.806 343.605 317.538 348.144 315.006 351.701C312.474 355.258 308.869 357.565 304.921 358.156L311.29 415.988H271.574V340.145C271.581 335.334 273.237 330.722 276.177 327.323C279.118 323.924 283.104 322.015 287.259 322.015V322.015Z" fill="#263238"/>
<path d="M287.259 322.015C291.239 322.024 295.066 323.786 297.965 326.942C300.864 330.099 302.617 334.415 302.868 339.013C303.12 343.612 301.851 348.149 299.319 351.704C296.788 355.259 293.183 357.566 289.236 358.156L295.618 415.988H271.574V340.145C271.581 335.334 273.237 330.722 276.177 327.323C279.118 323.924 283.104 322.015 287.259 322.015V322.015Z" fill="#263238"/>
<path opacity="0.2" d="M287.259 322.015C291.239 322.024 295.066 323.786 297.965 326.942C300.864 330.099 302.617 334.415 302.868 339.013C303.12 343.612 301.851 348.149 299.319 351.704C296.788 355.259 293.183 357.566 289.236 358.156L295.618 415.988H271.574V340.145C271.581 335.334 273.237 330.722 276.177 327.323C279.118 323.924 283.104 322.015 287.259 322.015V322.015Z" fill="white"/>
<path d="M330.71 254.864C326.199 267.464 323.876 280.969 323.875 294.608C323.873 308.248 326.192 321.754 330.7 334.355C335.208 346.956 341.815 358.405 350.146 368.049C358.476 377.693 368.366 385.341 379.25 390.558L330.787 388.943C315.685 381.699 303.687 367.807 297.431 350.321C291.175 332.836 291.174 313.189 297.428 295.703L330.71 254.864Z" fill="#407BFF"/>
<path opacity="0.6" d="M330.71 254.864C326.199 267.464 323.876 280.969 323.875 294.608C323.873 308.248 326.192 321.754 330.7 334.355C335.208 346.956 341.815 358.405 350.146 368.049C358.476 377.693 368.366 385.341 379.25 390.558L330.787 388.943C315.685 381.699 303.687 367.807 297.431 350.321C291.175 332.836 291.174 313.189 297.428 295.703L330.71 254.864Z" fill="white"/>
<path d="M455.525 219.846C449.272 237.332 449.273 256.979 455.529 274.464C461.785 291.949 473.783 305.842 488.885 313.086C491.983 304.427 493.578 295.147 493.578 285.775C493.579 276.403 491.984 267.123 488.886 258.465C485.789 249.806 481.248 241.939 475.524 235.313C469.8 228.687 463.004 223.431 455.525 219.846V219.846Z" fill="#407BFF"/>
<path opacity="0.2" d="M455.525 219.846C449.272 237.332 449.273 256.979 455.529 274.464C461.785 291.949 473.783 305.842 488.885 313.086C491.983 304.427 493.578 295.147 493.578 285.775C493.579 276.403 491.984 267.123 488.886 258.465C485.789 249.806 481.248 241.939 475.524 235.313C469.8 228.687 463.004 223.431 455.525 219.846V219.846Z" fill="white"/>
<path d="M457.585 241.147C455.628 251.578 456.472 262.452 460.002 272.312C463.533 282.173 469.583 290.548 477.34 296.316C478.187 296.949 479.153 297.336 480.156 297.444C481.159 297.553 482.171 297.379 483.104 296.939C484.037 296.499 484.865 295.804 485.517 294.914C486.169 294.025 486.626 292.966 486.849 291.828C488.815 281.391 487.975 270.507 484.444 260.637C480.913 250.768 474.859 242.385 467.094 236.614C466.245 235.981 465.276 235.596 464.271 235.49C463.265 235.384 462.252 235.561 461.318 236.006C460.384 236.451 459.557 237.151 458.907 238.046C458.257 238.941 457.804 240.005 457.585 241.147V241.147Z" fill="#263238"/>
<path opacity="0.1" d="M457.585 241.147C455.628 251.578 456.472 262.452 460.002 272.312C463.533 282.173 469.583 290.548 477.34 296.316C478.187 296.949 479.153 297.336 480.156 297.444C481.159 297.553 482.171 297.379 483.104 296.939C484.037 296.499 484.865 295.804 485.517 294.914C486.169 294.025 486.626 292.966 486.849 291.828C488.815 281.391 487.975 270.507 484.444 260.637C480.913 250.768 474.859 242.385 467.094 236.614C466.245 235.981 465.276 235.596 464.271 235.49C463.265 235.384 462.252 235.561 461.318 236.006C460.384 236.451 459.557 237.151 458.907 238.046C458.257 238.941 457.804 240.005 457.585 241.147V241.147Z" fill="white"/>
<path opacity="0.7" d="M470.08 289.66C465.668 284.648 462.188 278.644 459.855 272.017C457.522 265.39 456.385 258.28 456.514 251.125C460.925 256.138 464.404 262.142 466.737 268.769C469.07 275.396 470.207 282.505 470.08 289.66V289.66Z" fill="black"/>
<path d="M330.706 254.864C326.195 267.463 323.873 280.969 323.871 294.608C323.869 308.247 326.189 321.753 330.696 334.354C335.204 346.955 341.812 358.405 350.142 368.048C358.473 377.692 368.362 385.341 379.247 390.558L455.604 353.938C444.722 348.719 434.835 341.07 426.507 331.427C418.179 321.784 411.574 310.336 407.067 297.736C402.561 285.137 400.242 271.633 400.244 257.997C400.245 244.36 402.567 230.857 407.076 218.259L330.706 254.864Z" fill="#407BFF"/>
<path opacity="0.7" d="M330.706 254.864C326.195 267.463 323.873 280.969 323.871 294.608C323.869 308.247 326.189 321.753 330.696 334.354C335.204 346.955 341.812 358.405 350.142 368.048C358.473 377.692 368.362 385.341 379.247 390.558L455.604 353.938C444.722 348.719 434.835 341.07 426.507 331.427C418.179 321.784 411.574 310.336 407.067 297.736C402.561 285.137 400.242 271.633 400.244 257.997C400.245 244.36 402.567 230.857 407.076 218.259L330.706 254.864Z" fill="white"/>
<path d="M407.078 218.229C402.569 230.826 400.248 244.329 400.246 257.966C400.245 271.603 402.563 285.107 407.069 297.706C411.576 310.306 418.182 321.754 426.509 331.397C434.837 341.04 444.724 348.689 455.606 353.908L488.888 313.084C473.786 305.841 461.788 291.948 455.532 274.463C449.276 256.977 449.275 237.331 455.528 219.844L407.078 218.229Z" fill="#407BFF"/>
<path opacity="0.8" d="M407.078 218.229C402.569 230.826 400.248 244.329 400.246 257.966C400.245 271.603 402.563 285.107 407.069 297.706C411.576 310.306 418.182 321.754 426.509 331.397C434.837 341.04 444.724 348.689 455.606 353.908L488.888 313.084C473.786 305.841 461.788 291.948 455.532 274.463C449.276 256.977 449.275 237.331 455.528 219.844L407.078 218.229Z" fill="white"/>
<path d="M434.858 391.127V418.188H422.158C419.969 413.045 416.58 408.715 412.375 405.687C408.17 402.658 403.318 401.053 398.366 401.053C393.414 401.053 388.561 402.658 384.356 405.687C380.151 408.715 376.763 413.045 374.573 418.188H366.46C364.271 413.045 360.882 408.715 356.677 405.687C352.472 402.658 347.619 401.053 342.668 401.053C337.716 401.053 332.863 402.658 328.658 405.687C324.453 408.715 321.064 413.045 318.875 418.188H256.859V391.127H434.858Z" fill="#407BFF"/>
<path opacity="0.1" d="M316.973 379.758C322.89 372.024 331.275 364.126 341.521 356.602C351.197 371.68 364.24 383.42 379.247 390.559L330.784 388.943C325.856 386.588 321.213 383.501 316.973 379.758Z" fill="black"/>
<path opacity="0.1" d="M341.613 356.601C358.774 344.403 377.18 334.73 396.407 327.804C403.901 325.022 411.304 322.703 418.526 320.773C428.118 335.443 440.919 346.882 455.606 353.908L379.249 390.558C364.275 383.403 351.265 371.664 341.613 356.601V356.601Z" fill="black"/>
<path opacity="0.1" d="M486.069 316.539L455.604 353.937C440.917 346.911 428.116 335.472 418.523 320.803C445.203 313.667 469.312 312.351 486.069 316.539Z" fill="black"/>
<path d="M508.888 418.187H431.277V429.151H508.888V418.187Z" fill="#263238"/>
<path d="M189.325 418.187C187.876 421.621 187 425.341 186.741 429.151H142.18V418.187H189.325Z" fill="#263238"/>
<path d="M316.228 428.553H239.522C239.259 424.963 238.455 421.455 237.145 418.187H318.541C317.253 421.459 316.47 424.968 316.228 428.553Z" fill="#263238"/>
<path opacity="0.5" d="M508.888 418.187H431.277V429.151H508.888V418.187Z" fill="white"/>
<path opacity="0.8" d="M189.325 418.187C187.876 421.621 187 425.341 186.741 429.151H142.18V418.187H189.325Z" fill="white"/>
<path opacity="0.8" d="M316.228 428.553H239.522C239.259 424.963 238.455 421.455 237.145 418.187H318.541C317.253 421.459 316.47 424.968 316.228 428.553Z" fill="white"/>
<path d="M475.888 329.045L481.934 391.125H433.316L439.35 329.224C444.231 334.777 450.808 337.873 457.651 337.839C464.493 337.806 471.048 334.645 475.888 329.045V329.045Z" fill="#263238"/>
<path opacity="0.5" d="M475.888 329.045L481.934 391.125H433.316L439.35 329.224C444.231 334.777 450.808 337.873 457.651 337.839C464.493 337.806 471.048 334.645 475.888 329.045V329.045Z" fill="white"/>
<path d="M425.152 391.126L431.186 329.21H439.326L433.292 391.126H425.152Z" fill="#263238"/>
<path opacity="0.2" d="M425.152 391.126L431.186 329.21H439.326L433.292 391.126H425.152Z" fill="white"/>
<path d="M90.0078 121.367C90.0078 121.367 111.662 132.916 187.463 123.506L174.853 240.068C146.857 241.755 118.805 238.394 91.7003 230.105L90.0078 121.367Z" fill="#407BFF"/>
<path opacity="0.8" d="M90.0078 121.367C90.0078 121.367 111.662 132.916 187.463 123.506L174.853 240.068C146.857 241.755 118.805 238.394 91.7003 230.105L90.0078 121.367Z" fill="white"/>
<path opacity="0.1" d="M97.5781 132.572L98.9864 223.449C121.673 229.698 144.963 232.524 168.276 231.856L178.974 133.126C134.607 137.913 110.007 135.325 97.5781 132.572Z" fill="black"/>
<path d="M181.054 237.525C180.912 239.29 178.122 240.517 174.84 240.068C171.558 239.62 169 237.959 169.155 236.194L176.468 120.485C176.675 118.017 180.551 116.417 185.124 116.94C189.698 117.464 193.238 119.932 193.031 122.34L181.054 237.525Z" fill="#407BFF"/>
<path opacity="0.6" d="M181.054 237.525C180.912 239.29 178.122 240.517 174.84 240.068C171.558 239.62 169 237.959 169.155 236.194L176.468 120.485C176.675 118.017 180.551 116.417 185.124 116.94C189.698 117.464 193.238 119.932 193.031 122.34L181.054 237.525Z" fill="white"/>
<path opacity="0.1" d="M181.054 237.525C180.912 239.29 178.122 240.517 174.84 240.068C171.558 239.619 169 237.959 169.155 236.194C169.31 234.429 172.088 233.277 175.37 233.636C178.651 233.995 181.209 235.745 181.054 237.525Z" fill="black"/>
<path d="M145.945 181.248L147.922 181.338C147.922 180.994 147.922 180.814 148.038 180.455H146.85C146.927 179.932 146.966 179.662 147.031 179.139H146.242C146.126 179.917 146.062 180.365 145.945 181.248Z" fill="#407BFF"/>
<path d="M149.905 180.546H151.779C151.779 180.905 151.779 181.085 151.675 181.444L149.789 181.369C149.841 181.13 149.854 180.89 149.905 180.546ZM153.652 180.666H155.538C155.538 181.025 155.474 181.204 155.435 181.563H153.549C153.588 181.204 153.613 181.025 153.652 180.666V180.666Z" fill="#407BFF"/>
<path d="M157.416 180.756H159.289C159.289 181.13 159.289 181.309 159.199 181.669H157.312C157.351 181.309 157.377 181.13 157.416 180.756ZM161.176 180.756H163.049C163.049 181.13 163.049 181.309 162.971 181.669H161.085C161.124 181.354 161.137 181.13 161.176 180.816V180.756ZM164.935 180.756H166.822C166.822 181.115 166.822 181.309 166.731 181.669H164.858C164.884 181.369 164.897 181.13 164.935 180.816V180.756Z" fill="#407BFF"/>
<path d="M168.613 181.713H170.59C170.668 180.786 170.706 180.322 170.771 179.395H169.983C169.983 179.948 169.983 180.232 169.879 180.786H168.691C168.665 181.13 168.652 181.339 168.613 181.713Z" fill="#407BFF"/>
<path d="M170.332 174.966H171.107C171.107 175.848 171.004 176.297 170.939 177.18H170.164C170.229 176.297 170.267 175.848 170.332 174.966ZM170.668 170.553H171.443C171.379 171.435 171.34 171.884 171.275 172.767H170.5C170.565 171.869 170.603 171.435 170.668 170.553Z" fill="#407BFF"/>
<path d="M170.979 166.17H171.742C171.742 167.067 171.651 167.501 171.586 168.399H170.824C170.902 167.456 170.979 167.007 170.979 166.17ZM171.289 161.682H172.052C171.987 162.565 171.961 163.013 171.897 163.896H171.134C171.212 163.013 171.251 162.58 171.302 161.682H171.289ZM171.599 157.194H172.349C172.349 158.092 172.258 158.541 172.207 159.423H171.444C171.522 158.586 171.548 158.137 171.612 157.194H171.599Z" fill="#407BFF"/>
<path d="M171.767 155.025H172.503C172.503 154.098 172.594 153.634 172.658 152.691L170.811 152.826L170.746 153.754H171.857C171.818 154.202 171.806 154.457 171.767 155.025Z" fill="#407BFF"/>
<path d="M163.73 153.156L165.5 153.081C165.5 153.44 165.5 153.635 165.422 153.994L163.652 154.084C163.691 153.71 163.704 153.53 163.73 153.156ZM167.27 152.977L169.04 152.872L168.975 153.814L167.192 153.904C167.231 153.53 167.244 153.351 167.27 152.977Z" fill="#407BFF"/>
<path d="M153.123 153.455H154.893C154.893 153.814 154.828 153.993 154.79 154.352H153.02C153.071 153.993 153.084 153.814 153.123 153.455ZM156.663 153.455H158.433C158.433 153.814 158.433 154.008 158.343 154.367H156.573C156.598 153.948 156.624 153.754 156.663 153.395V153.455ZM160.19 153.365L161.96 153.29C161.96 153.664 161.96 153.844 161.883 154.203H160.113C160.138 153.844 160.164 153.664 160.19 153.305V153.365Z" fill="#407BFF"/>
<path d="M149.234 155.698H149.984C150.048 155.159 150.074 154.905 150.139 154.366H151.25C151.25 154.007 151.314 153.828 151.353 153.469H149.506C149.402 154.381 149.338 154.83 149.234 155.698Z" fill="#407BFF"/>
<path d="M148.443 162.101H149.193L148.934 164.225H148.172C148.288 163.372 148.34 162.953 148.443 162.101ZM148.973 157.853H149.722L149.464 159.977H148.715L148.973 157.853Z" fill="#407BFF"/>
<path d="M146.808 174.816H147.583C147.48 175.654 147.415 176.088 147.312 176.926H146.523C146.64 176.088 146.691 175.654 146.808 174.816ZM147.363 170.583H148.138C148.022 171.421 147.97 171.854 147.854 172.692H147.092C147.195 171.854 147.26 171.436 147.363 170.658V170.583ZM147.906 166.35H148.668L148.41 168.474H147.635C147.725 167.666 147.803 167.187 147.906 166.35V166.35Z" fill="#407BFF"/>
<path d="M122.191 179.155L124.155 179.394C124.22 179.05 124.246 178.885 124.31 178.556L123.147 178.407C123.238 177.913 123.29 177.659 123.38 177.15L122.605 177.061L122.191 179.155Z" fill="#407BFF"/>
<path d="M126.18 178.765L128.04 178.959L127.885 179.812L126.012 179.632L126.18 178.765ZM129.914 179.154L131.774 179.333C131.774 179.677 131.684 179.842 131.632 180.186L129.759 180.006C129.823 179.632 129.849 179.483 129.914 179.154V179.154Z" fill="#407BFF"/>
<path d="M133.65 179.499L135.523 179.664C135.459 180.008 135.433 180.172 135.381 180.516L133.508 180.352C133.508 180.008 133.585 179.843 133.65 179.499ZM137.384 179.798L139.257 179.948L139.128 180.815L137.255 180.666L137.384 179.798ZM141.131 180.067L143.004 180.187L142.875 181.069L141.001 180.95L141.131 180.067Z" fill="#407BFF"/>
<path d="M144.762 181.13L146.726 181.235C146.842 180.352 146.906 179.918 147.023 179.035H146.235C146.235 179.574 146.131 179.828 146.054 180.367L144.878 180.292C144.826 180.651 144.813 180.831 144.762 181.13Z" fill="#407BFF"/>
<path d="M146.808 174.816H147.583C147.48 175.654 147.415 176.088 147.312 176.925H146.523C146.64 176.073 146.691 175.654 146.808 174.816ZM147.363 170.583H148.138C148.022 171.421 147.97 171.854 147.854 172.692H147.092C147.195 171.854 147.26 171.436 147.363 170.658V170.583Z" fill="#407BFF"/>
<path d="M147.9 166.349H148.663L148.404 168.473H147.629C147.719 167.666 147.797 167.187 147.9 166.349ZM148.443 162.101H149.192L148.934 164.225H148.172C148.288 163.372 148.34 162.954 148.443 162.101V162.101ZM148.973 157.853H149.722L149.464 159.977H148.714L148.973 157.853Z" fill="#407BFF"/>
<path d="M149.232 155.698H149.982L150.24 153.469H148.392C148.392 153.828 148.328 154.007 148.289 154.351H149.4C149.336 154.905 149.297 155.174 149.232 155.698Z" fill="#407BFF"/>
<path d="M141.322 153.396H143.092L142.963 154.276L141.258 154.202L141.322 153.396ZM144.85 153.396H146.62C146.62 153.754 146.555 153.933 146.503 154.291H144.733C144.785 153.993 144.811 153.814 144.85 153.455V153.396Z" fill="#407BFF"/>
<path d="M130.745 152.962L132.502 153.052C132.502 153.396 132.412 153.575 132.36 153.919L130.59 153.815C130.654 153.485 130.68 153.306 130.745 152.962ZM134.272 153.141L136.029 153.216L135.9 154.084H134.13C134.182 153.665 134.207 153.485 134.272 153.141ZM137.799 153.291H139.556C139.556 153.65 139.492 153.829 139.44 154.174H137.67L137.799 153.291Z" fill="#407BFF"/>
<path d="M126.746 154.861H127.483C127.573 154.353 127.625 154.098 127.715 153.575H128.826C128.826 153.231 128.904 153.066 128.968 152.722L127.121 152.603C126.966 153.59 126.888 154.009 126.746 154.861Z" fill="#407BFF"/>
<path d="M125.644 160.949H126.394L126.032 162.969H125.27C125.425 162.161 125.502 161.757 125.644 160.949ZM126.381 156.896H127.13L126.768 158.915H126.019L126.381 156.896Z" fill="#407BFF"/>
<path d="M123.38 173.037L124.155 173.127L123.767 175.146L122.992 175.057L123.38 173.037ZM124.142 169.013H124.904C124.749 169.821 124.685 170.225 124.53 171.033L123.754 170.958L124.142 169.013ZM124.891 164.989H125.654C125.512 165.797 125.434 166.201 125.279 167.024L124.517 166.949C124.672 166.171 124.749 165.797 124.891 164.989Z" fill="#407BFF"/>
<path d="M98.6289 175.46L100.567 175.819L100.761 175.026L99.5979 174.802C99.7271 174.338 99.7917 174.099 99.908 173.62L99.1328 173.471C98.939 174.263 98.8485 174.667 98.6289 175.46Z" fill="#407BFF"/>
<path d="M102.629 175.354L104.476 175.684L104.282 176.492L102.422 176.162C102.499 175.848 102.499 175.684 102.629 175.354ZM106.324 175.998L108.184 176.312L107.99 177.12L106.13 176.821L106.324 175.998Z" fill="#407BFF"/>
<path d="M110.032 176.641L111.893 176.925C111.815 177.254 111.777 177.419 111.712 177.748L109.852 177.448C109.929 177.104 109.955 176.94 110.032 176.641ZM113.74 177.194L115.601 177.463C115.601 177.793 115.498 177.957 115.433 178.301L113.573 178.017L113.74 177.194ZM117.461 177.718L119.322 177.972C119.257 178.301 119.219 178.466 119.154 178.81L117.293 178.556C117.358 178.137 117.397 178.032 117.461 177.688V177.718Z" fill="#407BFF"/>
<path d="M121.031 179.02L122.982 179.259C123.15 178.421 123.228 177.988 123.383 177.15L122.607 177.061C122.504 177.569 122.465 177.823 122.362 178.317L121.186 178.182C121.122 178.511 121.096 178.676 121.031 179.02Z" fill="#407BFF"/>
<path d="M123.38 173.037L124.155 173.126L123.767 175.146L122.992 175.056L123.38 173.037ZM124.142 169.013H124.904C124.749 169.82 124.685 170.224 124.53 171.032L123.754 170.957L124.142 169.013Z" fill="#407BFF"/>
<path d="M124.894 164.988H125.656C125.514 165.796 125.437 166.2 125.282 167.023L124.52 166.948C124.675 166.17 124.752 165.796 124.894 164.988ZM125.644 160.949H126.393L126.031 162.969H125.269C125.424 162.161 125.501 161.757 125.644 160.949V160.949ZM126.38 156.896H127.129L126.768 158.915H126.018L126.38 156.896Z" fill="#407BFF"/>
<path d="M126.751 154.862H127.487C127.642 154.01 127.72 153.576 127.862 152.723L126.014 152.708C126.014 153.052 125.924 153.217 125.859 153.561L126.971 153.636L126.751 154.862Z" fill="#407BFF"/>
<path d="M118.977 152.079L120.734 152.244C120.669 152.573 120.643 152.752 120.579 153.082L118.809 152.917C118.873 152.588 118.912 152.423 118.977 152.079ZM122.504 152.393L124.261 152.528L124.106 153.381L122.336 153.231L122.504 152.393Z" fill="#407BFF"/>
<path d="M108.433 150.941L110.254 151.211C110.177 151.54 110.151 151.704 110.074 152.033L108.316 151.809C108.329 151.42 108.355 151.211 108.433 150.941ZM111.947 151.36L113.704 151.555C113.627 151.884 113.601 152.048 113.523 152.378L111.766 152.183C111.844 151.854 111.869 151.689 111.947 151.36ZM115.461 151.734L117.218 151.914L117.05 152.752L115.293 152.572L115.461 151.734Z" fill="#407BFF"/>
<path d="M104.363 152.483L105.1 152.587C105.216 152.094 105.268 151.854 105.384 151.376L106.495 151.525C106.573 151.196 106.611 151.031 106.676 150.702L104.841 150.463L104.363 152.483Z" fill="#407BFF"/>
<path d="M102.969 158.227L103.705 158.347C103.525 159.11 103.434 159.499 103.24 160.261L102.504 160.187L102.969 158.227ZM103.899 154.397L104.636 154.502C104.455 155.28 104.364 155.654 104.171 156.432L103.434 156.312C103.615 155.549 103.718 155.16 103.899 154.397Z" fill="#407BFF"/>
<path d="M100.111 169.67L100.873 169.805C100.679 170.568 100.589 170.957 100.395 171.705L99.6328 171.57L100.111 169.67ZM101.067 165.87L101.829 165.99L101.351 167.905L100.589 167.77L101.067 165.87ZM102.023 162.056L102.772 162.175C102.579 162.938 102.488 163.327 102.307 164.09L101.545 163.956L102.023 162.056Z" fill="#407BFF"/>
<path d="M134.566 213.77L136.672 214.039C136.672 213.695 136.75 213.516 136.814 213.172L135.522 213.022L135.742 211.721L134.902 211.616C134.799 212.544 134.709 212.918 134.566 213.77Z" fill="#407BFF"/>
<path d="M139.414 213.487L141.998 213.787L141.869 214.654L139.285 214.355C139.324 214.041 139.35 213.831 139.414 213.487ZM144.582 214.056L147.166 214.31L147.037 215.193L144.453 214.938L144.582 214.056Z" fill="#407BFF"/>
<path d="M149.823 214.548L152.407 214.772C152.407 215.131 152.33 215.311 152.291 215.655C151.245 215.58 150.715 215.535 149.707 215.43L149.823 214.548ZM154.991 214.967L157.575 215.161C157.575 215.52 157.511 215.7 157.472 216.059L154.888 215.864C154.978 215.535 154.991 215.326 155.043 214.967H154.991ZM160.159 215.326L162.743 215.46C162.743 215.834 162.679 216.014 162.64 216.373L160.056 216.223C160.211 215.864 160.224 215.685 160.263 215.326H160.159Z" fill="#407BFF"/>
<path d="M165.406 216.508L167.538 216.597C167.628 215.685 167.667 215.236 167.758 214.309H166.905L166.776 215.685H165.484C165.471 215.954 165.445 216.134 165.406 216.508Z" fill="#407BFF"/>
<path d="M167.447 208.638H168.287C168.184 209.775 168.132 210.344 168.016 211.465H167.176C167.292 210.329 167.344 209.76 167.447 208.638ZM167.977 202.969H168.804L168.545 205.796H167.718L167.977 202.969Z" fill="#407BFF"/>
<path d="M168.484 197.3H169.298C169.207 198.437 169.156 199.006 169.052 200.143H168.238C168.393 199.081 168.393 198.437 168.484 197.3ZM168.975 191.631H169.789C169.685 192.768 169.647 193.336 169.543 194.473H168.729C168.833 193.336 168.884 192.768 168.975 191.601V191.631ZM169.453 185.932H170.254C170.163 187.069 170.112 187.637 170.021 188.774H169.22C169.311 187.637 169.362 187.113 169.453 185.932Z" fill="#407BFF"/>
<path d="M169.686 183.074H170.487C170.487 182.147 170.59 181.683 170.668 180.756H168.691C168.691 181.13 168.691 181.309 168.613 181.683H169.802C169.763 182.252 169.686 182.521 169.686 183.074Z" fill="#407BFF"/>
<path d="M158.95 180.784H161.392C161.392 181.143 161.327 181.322 161.301 181.695H158.859C158.898 181.322 158.911 181.128 158.95 180.784ZM163.821 180.784H166.263C166.263 181.158 166.263 181.337 166.172 181.695H163.73C163.769 181.367 163.782 181.128 163.821 180.829V180.784Z" fill="#407BFF"/>
<path d="M144.362 180.276L146.791 180.396C146.791 180.755 146.727 180.935 146.675 181.279L144.246 181.144L144.362 180.276ZM149.22 180.516L151.649 180.606C151.649 180.965 151.649 181.144 151.546 181.503L149.104 181.398C149.156 181.039 149.182 180.86 149.22 180.516ZM154.078 180.68H156.52C156.52 181.039 156.455 181.219 156.417 181.578H153.975C154.027 181.219 154.039 181.039 154.078 180.68V180.68Z" fill="#407BFF"/>
<path d="M139.645 182.178H140.433L140.626 180.862H141.802L141.931 179.994L139.968 179.859L139.645 182.178Z" fill="#407BFF"/>
<path d="M138.407 190.239H139.208C139.04 191.316 138.962 191.855 138.794 192.932L137.98 192.857C138.148 191.855 138.239 191.316 138.407 190.239ZM139.234 184.869H140.035C139.867 185.946 139.789 186.485 139.621 187.562H138.82C138.988 186.485 139.066 185.946 139.234 184.869V184.869Z" fill="#407BFF"/>
<path d="M135.818 206.291L136.645 206.396C136.464 207.458 136.387 207.996 136.206 209.058L135.379 208.954C135.547 207.892 135.637 207.368 135.818 206.291ZM136.697 200.966L137.511 201.04C137.343 202.117 137.252 202.656 137.084 203.718L136.257 203.628C136.425 202.566 136.516 202.073 136.697 200.966ZM137.549 195.61H138.363C138.195 196.687 138.105 197.226 137.937 198.288L137.123 198.213C137.291 197.211 137.382 196.687 137.549 195.61V195.61Z" fill="#407BFF"/>
<path d="M102.82 208.221C103.647 208.4 104.112 208.505 104.888 208.669C104.978 208.355 105.017 208.191 105.094 207.862L103.802 207.607C103.919 207.113 103.983 206.874 104.099 206.395L103.273 206.216C103.117 207.024 103.014 207.428 102.82 208.221Z" fill="#407BFF"/>
<path d="M107.669 208.399L110.253 208.923C110.189 209.237 110.15 209.402 110.072 209.731L107.488 209.207L107.669 208.399ZM112.837 209.417L115.421 209.895L115.253 210.718L112.669 210.239C112.682 209.91 112.721 209.746 112.837 209.417Z" fill="#407BFF"/>
<path d="M118.008 210.358L120.592 210.792C120.527 211.136 120.501 211.301 120.424 211.63C119.39 211.465 118.873 211.376 117.84 211.181C117.84 210.852 117.866 210.687 118.008 210.358ZM123.176 211.226L125.76 211.63L125.605 212.483L123.021 212.064C123.008 211.735 123.034 211.555 123.098 211.226H123.176ZM128.344 212.019L130.928 212.393L130.773 213.245L128.189 212.871C128.176 212.542 128.215 212.363 128.344 212.019Z" fill="#407BFF"/>
<path d="M133.305 213.606L135.411 213.875C135.553 213.022 135.63 212.589 135.772 211.721L134.933 211.616L134.713 212.918L133.421 212.753L133.305 213.606Z" fill="#407BFF"/>
<path d="M135.818 206.29L136.645 206.395C136.464 207.457 136.387 207.996 136.206 209.058L135.379 208.953C135.547 207.891 135.637 207.367 135.818 206.29ZM136.697 200.965L137.511 201.04C137.343 202.117 137.252 202.655 137.084 203.717L136.257 203.628C136.425 202.565 136.516 202.072 136.697 200.965Z" fill="#407BFF"/>
<path d="M137.555 195.61H138.369C138.201 196.687 138.111 197.225 137.943 198.287L137.129 198.213C137.297 197.21 137.387 196.687 137.555 195.61ZM138.408 190.239H139.209C139.041 191.316 138.964 191.855 138.796 192.932L137.982 192.857C138.15 191.855 138.24 191.316 138.408 190.239ZM139.235 184.869H140.036C139.868 185.946 139.79 186.485 139.622 187.562H138.821C138.989 186.485 139.067 185.946 139.235 184.869V184.869Z" fill="#407BFF"/>
<path d="M139.65 182.178H140.438L140.761 179.994L138.797 179.859L138.668 180.727H139.844L139.65 182.178Z" fill="#407BFF"/>
<path d="M129.112 179.065L131.528 179.305C131.464 179.649 131.438 179.814 131.386 180.158L128.957 179.918L129.112 179.065ZM133.944 179.529L136.373 179.724C136.309 180.068 136.283 180.247 136.231 180.591L133.802 180.382C133.867 180.038 133.892 179.873 133.944 179.529Z" fill="#407BFF"/>
<path d="M114.634 177.299L117.037 177.643L116.869 178.466L114.453 178.122C114.531 177.792 114.569 177.628 114.634 177.299ZM119.453 177.957L121.869 178.256C121.805 178.6 121.766 178.765 121.701 179.094L119.285 178.795C119.298 178.451 119.389 178.286 119.453 177.957V177.957ZM124.272 178.54L126.688 178.81C126.688 179.154 126.598 179.318 126.533 179.662L124.117 179.393C124.182 179.049 124.221 178.885 124.272 178.54V178.54Z" fill="#407BFF"/>
<path d="M109.828 178.69L110.603 178.81C110.72 178.316 110.771 178.077 110.875 177.583L112.05 177.763C112.115 177.434 112.154 177.269 112.231 176.94C111.456 176.82 111.056 176.775 110.28 176.641L109.828 178.69Z" fill="#407BFF"/>
<path d="M108.085 186.245L108.886 186.38L108.305 188.893L107.504 188.743L108.085 186.245ZM109.248 181.204L110.036 181.339L109.455 183.867L108.667 183.732L109.248 181.204Z" fill="#407BFF"/>
<path d="M104.529 201.249L105.343 201.413C105.111 202.415 104.994 202.909 104.749 203.911L103.922 203.732C104.167 202.745 104.284 202.236 104.529 201.249ZM105.731 196.252L106.545 196.417C106.299 197.419 106.183 197.913 105.95 198.915L105.136 198.75C105.369 197.748 105.485 197.255 105.731 196.252V196.252ZM106.919 191.256L107.72 191.405C107.488 192.408 107.359 192.901 107.126 193.904L106.325 193.754C106.558 192.752 106.674 192.258 106.919 191.256V191.256Z" fill="#407BFF"/>
<path d="M71.582 199.963L73.6234 200.592C73.7268 200.293 73.7655 200.143 73.8689 199.844L72.5769 199.47C72.7319 199.021 72.7965 198.797 72.9515 198.363L72.1376 198.108L71.582 199.963Z" fill="#407BFF"/>
<path d="M76.387 200.576L78.9064 201.324L78.6738 202.072C77.6661 201.773 77.1493 201.638 76.0898 201.324C76.2449 201.04 76.2836 200.89 76.387 200.576ZM81.4387 202.072L84.0227 202.775L83.8031 203.538L81.2191 202.835C81.2966 202.506 81.3354 202.356 81.4387 202.072Z" fill="#407BFF"/>
<path d="M86.5048 203.433L89.0888 204.091L88.8692 204.869C87.8485 204.614 87.3446 204.48 86.2852 204.195C86.3627 203.896 86.4144 203.747 86.5048 203.433ZM91.5824 204.749L94.1664 205.377L93.9467 206.155L91.3627 205.527C91.4532 205.213 91.4919 205.063 91.5824 204.749V204.749ZM96.6728 205.976L99.2568 206.574L99.063 207.367L96.479 206.768C96.5436 206.454 96.5824 206.305 96.6728 205.976V205.976Z" fill="#407BFF"/>
<path d="M101.586 207.951L103.653 208.4C103.847 207.607 103.95 207.203 104.144 206.395L103.317 206.216C103.201 206.695 103.136 206.934 103.02 207.428L101.728 207.143L101.586 207.951Z" fill="#407BFF"/>
<path d="M104.529 201.249L105.343 201.414C105.111 202.416 104.994 202.91 104.749 203.912L103.922 203.733C104.167 202.745 104.284 202.237 104.529 201.249ZM105.731 196.253L106.545 196.417C106.299 197.42 106.183 197.913 105.95 198.916L105.136 198.751C105.369 197.749 105.485 197.255 105.731 196.253V196.253Z" fill="#407BFF"/>
<path d="M106.922 191.257L107.723 191.406C107.491 192.408 107.362 192.902 107.129 193.919L106.328 193.755C106.561 192.752 106.677 192.259 106.922 191.257ZM108.085 186.245L108.886 186.38L108.305 188.893L107.504 188.743L108.085 186.245ZM109.248 181.204L110.036 181.339L109.455 183.867L108.667 183.732L109.248 181.204Z" fill="#407BFF"/>
<path d="M109.825 178.692L110.6 178.812L111.052 176.762L109.114 176.463C109.037 176.792 108.998 176.957 108.934 177.271L110.096 177.465C109.98 177.959 109.928 178.138 109.825 178.692Z" fill="#407BFF"/>
<path d="M99.5348 174.787L101.925 175.236L101.731 176.029C100.762 175.864 100.284 175.774 99.3281 175.58L99.5348 174.787ZM104.328 175.655L106.718 176.074L106.525 176.881L104.121 176.462C104.199 176.148 104.238 175.984 104.328 175.655Z" fill="#407BFF"/>
<path d="M85.2091 171.78L87.5864 172.319L87.3668 173.097L84.9766 172.543C85.067 172.244 85.1187 172.154 85.2091 171.78ZM89.9637 172.857L92.3539 173.366L92.1342 174.144L89.744 173.635C89.8345 173.321 89.8862 173.156 89.9637 172.857V172.857ZM94.7441 173.859L97.1214 174.338L96.9276 175.116L94.5244 174.637L94.7441 173.859Z" fill="#407BFF"/>
<path d="M80.332 172.648L81.1072 172.843L81.4561 171.706L82.6059 171.99C82.6964 171.676 82.7481 171.527 82.8385 171.227L80.9134 170.764L80.332 172.648Z" fill="#407BFF"/>
<path d="M78.1583 179.635L78.9335 179.844C78.6493 180.771 78.4942 181.235 78.21 182.177L77.4219 181.953L78.1583 179.635ZM79.6054 174.982L80.3806 175.177C80.0963 176.119 79.9542 176.583 79.657 177.51L78.8818 177.316C79.2436 176.374 79.3211 175.91 79.6054 174.982Z" fill="#407BFF"/>
<path d="M73.7025 193.516L74.5164 193.755L73.7671 196.059L72.9531 195.804C73.2632 194.892 73.4053 194.428 73.7025 193.516ZM75.2012 188.909L76.0022 189.133L75.2529 191.437L74.4519 191.212C74.7619 190.285 74.9041 189.821 75.2012 188.909V188.909ZM76.687 184.271L77.4751 184.496L76.7387 186.814L75.9506 186.59L76.687 184.271Z" fill="#407BFF"/>
<path d="M53.7031 207.636L62.6696 213.201L65.4991 198.645L54.9047 195.22L53.7031 207.636Z" fill="#FFC3BD"/>
<path d="M63.7413 135.923C63.7413 135.923 50.9892 134.637 48.0305 153.874C45.0719 173.111 35.8341 194.757 48.0305 206.32L55.059 211.242C58.3635 206.752 60.6502 201.379 61.7128 195.61L57.7335 192.409L60.7826 179.125C60.7826 179.125 68.9093 140.411 63.7413 135.923Z" fill="#407BFF"/>
<path opacity="0.5" d="M63.7413 135.923C63.7413 135.923 50.9892 134.637 48.0305 153.874C45.0719 173.111 35.8341 194.757 48.0305 206.32L55.059 211.242C58.3635 206.752 60.6502 201.379 61.7128 195.61L57.7335 192.409L60.7826 179.125C60.7826 179.125 68.9093 140.411 63.7413 135.923Z" fill="white"/>
<path d="M74.0792 461.089L67.6192 484.141C67.4667 484.746 67.4834 485.392 67.6667 485.986C67.85 486.579 68.1906 487.091 68.6399 487.447C70.8116 489.142 73.0632 490.695 75.3841 492.099C78.4216 493.389 81.5186 494.483 84.6607 495.376C85.1944 495.538 85.6666 495.9 86.0033 496.407C86.3399 496.913 86.5221 497.534 86.5211 498.173V498.173C86.5211 498.943 86.2571 499.681 85.787 500.225C85.317 500.769 84.6794 501.075 84.0147 501.075H52.2573C51.899 501.061 51.547 500.962 51.2238 500.782C50.9006 500.602 50.6132 500.347 50.3799 500.032C50.1466 499.717 49.9725 499.349 49.8686 498.951C49.7648 498.554 49.7334 498.136 49.7767 497.724L55.2418 458.097C55.3439 457.367 55.683 456.71 56.1896 456.259C56.6963 455.809 57.3324 455.6 57.9679 455.674L71.8957 457.319C72.2711 457.355 72.6347 457.488 72.9595 457.709C73.2843 457.93 73.5619 458.233 73.7717 458.595C73.9815 458.957 74.1181 459.37 74.1713 459.802C74.2246 460.233 74.1931 460.673 74.0792 461.089V461.089Z" fill="#263238"/>
<path d="M61.5147 238.827L96.5279 240.323C96.5279 240.323 99.1119 345.037 96.6571 374.745C94.4736 401.387 79.6802 445.636 76.812 459.473C76.6704 460.146 76.3187 460.733 75.8248 461.123C75.3308 461.513 74.7297 461.676 74.1375 461.583L55.9849 458.815C55.669 458.769 55.364 458.651 55.0876 458.468C54.8111 458.285 54.5687 458.04 54.3742 457.749C54.1796 457.457 54.0369 457.123 53.9541 456.767C53.8714 456.411 53.8502 456.039 53.8919 455.674C55.1839 444.604 58.6077 420.954 66.9282 381.821C68.3468 375.134 69.1267 368.286 69.2537 361.402C69.5121 346.667 69.6155 319.98 67.6258 300.324C65.8816 283.226 59.6025 265.499 61.5147 238.827Z" fill="#407BFF"/>
<path d="M74.0792 461.089L67.6192 484.141C67.4667 484.746 67.4834 485.392 67.6667 485.986C67.85 486.579 68.1906 487.091 68.6399 487.447C70.8116 489.142 73.0632 490.695 75.3841 492.099C78.4216 493.389 81.5186 494.483 84.6607 495.376C85.1944 495.538 85.6666 495.9 86.0033 496.407C86.3399 496.913 86.5221 497.534 86.5211 498.173V498.173C86.5211 498.943 86.2571 499.681 85.787 500.225C85.317 500.769 84.6794 501.075 84.0147 501.075H52.2573C51.899 501.061 51.547 500.962 51.2238 500.782C50.9006 500.602 50.6132 500.347 50.3799 500.032C50.1466 499.717 49.9725 499.349 49.8686 498.951C49.7648 498.554 49.7334 498.136 49.7767 497.724L55.2418 458.097C55.3439 457.367 55.683 456.71 56.1896 456.259C56.6963 455.809 57.3324 455.6 57.9679 455.674L71.8957 457.319C72.2711 457.355 72.6347 457.488 72.9595 457.709C73.2843 457.93 73.5619 458.233 73.7717 458.595C73.9815 458.957 74.1181 459.37 74.1713 459.802C74.2246 460.233 74.1931 460.673 74.0792 461.089V461.089Z" fill="#263238"/>
<path d="M61.5147 238.827L96.5279 240.323C96.5279 240.323 99.1119 345.037 96.6571 374.745C94.4736 401.387 79.6802 445.636 76.812 459.473C76.6704 460.146 76.3187 460.733 75.8248 461.123C75.3308 461.513 74.7297 461.676 74.1375 461.583L55.9849 458.815C55.669 458.769 55.364 458.651 55.0876 458.468C54.8111 458.285 54.5687 458.04 54.3742 457.749C54.1796 457.457 54.0369 457.123 53.9541 456.767C53.8714 456.411 53.8502 456.039 53.8919 455.674C55.1839 444.604 58.6077 420.954 66.9282 381.821C68.3468 375.134 69.1267 368.286 69.2537 361.402C69.5121 346.667 69.6155 319.98 67.6258 300.324C65.8816 283.226 59.6025 265.499 61.5147 238.827Z" fill="#407BFF"/>
<path opacity="0.2" d="M61.5147 238.827L96.5279 240.323C96.5279 240.323 99.1119 345.037 96.6571 374.745C94.4736 401.387 79.6802 445.636 76.812 459.473C76.6704 460.146 76.3187 460.733 75.8248 461.123C75.3308 461.513 74.7297 461.676 74.1375 461.583L55.9849 458.815C55.669 458.769 55.364 458.651 55.0876 458.468C54.8111 458.285 54.5687 458.04 54.3742 457.749C54.1796 457.457 54.0369 457.123 53.9541 456.767C53.8714 456.411 53.8502 456.039 53.8919 455.674C55.1839 444.604 58.6077 420.954 66.9282 381.821C68.3468 375.134 69.1267 368.286 69.2537 361.402C69.5121 346.667 69.6155 319.98 67.6258 300.324C65.8816 283.226 59.6025 265.499 61.5147 238.827Z" fill="black"/>
<path opacity="0.2" d="M86.3516 264.361C87.0601 294.637 90.9209 324.702 97.8504 353.907C98.3026 336.105 97.2819 290.166 97.0622 272.14L92.6436 264.361H86.3516Z" fill="black"/>
<path d="M132.426 459.219L130.785 484.47C130.747 484.999 130.837 485.529 131.045 486.002C131.252 486.475 131.569 486.872 131.961 487.148C134.552 489.019 137.225 490.732 139.971 492.279C143.195 493.541 146.472 494.609 149.79 495.48C150.315 495.648 150.776 496.012 151.103 496.515C151.43 497.018 151.605 497.633 151.599 498.262V498.262C151.599 499.024 151.338 499.755 150.873 500.293C150.407 500.832 149.777 501.134 149.119 501.134H116.819C116.174 501.135 115.554 500.845 115.091 500.325C114.628 499.806 114.358 499.098 114.338 498.352L113.369 459.982C113.344 459.226 113.577 458.489 114.016 457.93C114.456 457.37 115.068 457.033 115.72 456.991L129.842 456.168C130.19 456.15 130.537 456.218 130.861 456.365C131.185 456.513 131.478 456.739 131.722 457.026C131.965 457.314 132.154 457.658 132.275 458.036C132.397 458.414 132.448 458.817 132.426 459.219V459.219Z" fill="#263238"/>
<path d="M117.449 242.029C117.449 242.029 135.847 351.843 137.591 374.671C139.181 395.374 135.279 443.378 134.684 458.651C134.661 459.31 134.418 459.932 134.005 460.387C133.593 460.842 133.045 461.094 132.475 461.09H113.819C113.243 461.094 112.689 460.836 112.275 460.371C111.862 459.907 111.623 459.273 111.609 458.606C111.377 447.193 110.976 419.713 111.894 391.829C112.22 381.047 110.908 370.282 108.018 360.026C101.428 336.241 89.4516 291.409 85.2138 264.722C84.3094 259.007 82.7461 241.64 82.7461 241.64L117.449 242.029Z" fill="#407BFF"/>
<path opacity="0.2" d="M117.449 242.029C117.449 242.029 135.847 351.843 137.591 374.671C139.181 395.374 135.279 443.378 134.684 458.651C134.661 459.31 134.418 459.932 134.005 460.387C133.593 460.842 133.045 461.094 132.475 461.09H113.819C113.243 461.094 112.689 460.836 112.275 460.371C111.862 459.907 111.623 459.273 111.609 458.606C111.377 447.193 110.976 419.713 111.894 391.829C112.22 381.047 110.908 370.282 108.018 360.026C101.428 336.241 89.4516 291.409 85.2138 264.722C84.3094 259.007 82.7461 241.64 82.7461 241.64L117.449 242.029Z" fill="black"/>
<path d="M75.6016 132.152C75.6016 132.152 82.5784 131.345 82.5008 116.475C82.5008 116.475 88.9608 113.079 93.134 117.492C97.3072 121.905 89.258 132.137 94.5035 136.476C99.749 140.814 75.6016 132.152 75.6016 132.152Z" fill="#FFC3BD"/>
<path opacity="0.1" d="M89.2578 123.492C90.3285 125.438 91.6045 127.222 93.0563 128.802C93.431 126.888 93.9736 124.883 94.2449 123.043L89.2578 123.492Z" fill="black"/>
<path d="M154.18 183.539L175.821 180.756L179.89 173.262L185.058 169.642L189.128 171.96L186.35 188.026L181.919 190.016H176.738L154.18 197.017V183.539Z" fill="#FFC3BD"/>
<path d="M118.005 139.003C118.005 139.003 128.742 138.151 138.677 157.837L148.29 180.111H155.693C155.693 180.111 159.763 192.527 155.693 199.797C155.693 199.797 141.274 206.229 117.966 172.871L113.16 151.031L118.005 139.003Z" fill="#407BFF"/>
<path opacity="0.5" d="M118.005 139.003C118.005 139.003 128.742 138.151 138.677 157.837L148.29 180.111H155.693C155.693 180.111 159.763 192.527 155.693 199.797C155.693 199.797 141.274 206.229 117.966 172.871L113.16 151.031L118.005 139.003Z" fill="white"/>
<path d="M60.1373 247.233C60.1373 247.233 98.6001 254.712 119.802 247.233C119.802 247.233 114.866 223.298 122.257 182.161C122.257 182.161 114.866 160.47 122.257 138.779C122.257 138.779 92.6828 128.502 61.6102 134.77C59.7001 147.413 58.5475 160.194 58.1605 173.021C57.605 191.6 57.1786 203.283 60.1373 247.233Z" fill="#407BFF"/>
<path d="M73.5747 135.921C73.5747 135.921 72.0889 126.063 86.4947 127.784C100.901 129.504 103.497 138.061 103.497 138.061L73.5747 135.921Z" fill="#407BFF"/>
<path d="M58.7287 224.272C73.0954 226.061 87.5352 226.95 101.985 226.934C107.153 226.934 112.579 226.815 118.199 226.545C118.199 224.421 118.199 222.058 118.199 219.709C98.2193 220.651 78.2064 219.861 58.3281 217.346C58.4961 219.53 58.5736 221.833 58.7287 224.272Z" fill="#263238"/>
<path d="M100.989 198.989C100.783 182.534 101.984 147.126 109.788 137.776C110.42 136.96 111.233 136.359 112.139 136.041C109.865 135.533 107.268 135.024 104.387 134.545C99.9428 141.217 97.0358 154.321 95.7438 173.544C95.0461 184.015 95.0074 193.679 95.0461 198.72C85.3362 198.194 75.6554 197.101 66.0407 195.444C66.1699 186.932 66.6738 162.369 68.1596 150.342C68.7338 144.525 69.8515 138.797 71.493 133.259C69.3483 133.468 67.1777 133.752 65.033 134.111C63.8045 139.109 62.8934 144.204 62.3069 149.355C60.8211 161.457 60.3043 184.898 60.1492 194.307L57.7461 193.814C57.7461 196.013 57.7461 198.301 57.8236 200.829C74.6067 204.269 91.6199 205.981 108.664 205.945C112.023 205.945 115.511 205.871 119.064 205.721C119.258 203.507 119.491 201.233 119.762 198.84C113.212 199.184 106.92 199.184 100.989 198.989Z" fill="#263238"/>
<path opacity="0.8" d="M58.7287 224.272C73.0954 226.061 87.5352 226.95 101.985 226.934C107.153 226.934 112.579 226.815 118.199 226.545C118.199 224.421 118.199 222.058 118.199 219.709C98.2193 220.651 78.2064 219.861 58.3281 217.346C58.4961 219.53 58.5736 221.833 58.7287 224.272Z" fill="white"/>
<path opacity="0.8" d="M100.989 198.989C100.783 182.534 101.984 147.126 109.788 137.776C110.42 136.96 111.233 136.359 112.139 136.041C109.865 135.533 107.268 135.024 104.387 134.545C99.9428 141.217 97.0358 154.321 95.7438 173.544C95.0461 184.015 95.0074 193.679 95.0461 198.72C85.3362 198.194 75.6554 197.101 66.0407 195.444C66.1699 186.932 66.6738 162.369 68.1596 150.342C68.7338 144.525 69.8515 138.797 71.493 133.259C69.3483 133.468 67.1777 133.752 65.033 134.111C63.8045 139.109 62.8934 144.204 62.3069 149.355C60.8211 161.457 60.3043 184.898 60.1492 194.307L57.7461 193.814C57.7461 196.013 57.7461 198.301 57.8236 200.829C74.6067 204.269 91.6199 205.981 108.664 205.945C112.023 205.945 115.511 205.871 119.064 205.721C119.258 203.507 119.491 201.233 119.762 198.84C113.212 199.184 106.92 199.184 100.989 198.989Z" fill="white"/>
<path d="M69.5195 171.271L91.6902 173.59V189.866L69.5195 187.293V171.271Z" fill="white"/>
<path d="M108.342 99.2871C108.419 100.229 108.057 101.052 107.515 101.097C106.972 101.142 106.455 100.409 106.404 99.4816C106.352 98.5542 106.688 97.7315 107.231 97.6866C107.773 97.6417 108.264 98.3448 108.342 99.2871Z" fill="#263238"/>
<path d="M106.041 100.455L109.697 108.069C108.927 108.562 108.068 108.839 107.188 108.878C106.309 108.917 105.433 108.717 104.633 108.294L106.041 100.455Z" fill="#BA4D3C"/>
<path d="M76.4688 95.863C76.9597 108.459 76.9339 113.814 82.3344 120.366C90.6291 127.098 103.73 126.784 106.495 114.263C108.988 102.999 107.787 84.3445 97.1924 79.0639C94.8666 77.9177 92.3269 77.4768 89.813 77.7829C87.2991 78.089 84.8941 79.132 82.8252 80.8134C80.7562 82.4947 79.0915 84.759 77.9884 87.3922C76.8852 90.0255 76.38 92.9409 76.5204 95.863H76.4688Z" fill="#FFC3BD"/>
<path d="M104.049 94.8739C104.114 94.9068 104.184 94.9238 104.256 94.9238C104.327 94.9238 104.397 94.9068 104.462 94.8739C104.938 94.5905 105.465 94.4427 106 94.4427C106.535 94.4427 107.062 94.5905 107.537 94.8739C107.632 94.9417 107.746 94.964 107.854 94.9361C107.963 94.9081 108.058 94.8322 108.119 94.7243C108.178 94.6125 108.198 94.4785 108.174 94.3503C108.149 94.2221 108.084 94.1096 107.989 94.0364C107.4 93.655 106.74 93.4436 106.066 93.4202C105.391 93.3967 104.721 93.5619 104.113 93.9018C104.061 93.9277 104.014 93.9655 103.975 94.0128C103.935 94.0601 103.905 94.1161 103.884 94.1773C103.864 94.2386 103.854 94.304 103.856 94.3697C103.857 94.4354 103.87 94.5 103.894 94.5598V94.5598C103.919 94.6792 103.973 94.788 104.049 94.8739V94.8739Z" fill="#263238"/>
<path d="M99.9192 104.09C99.9192 104.09 101.767 94.8155 99.9192 92.2425C98.0716 89.6696 99.1182 89.0862 101.108 86.8273C103.098 84.5685 104.725 79.9461 100.656 77.6125C96.5858 75.2788 88.5754 73.8428 82.0379 78.2557C75.5004 82.6687 75.1387 88.4728 75.0224 92.7811C74.9061 97.0893 76.3144 111.809 77.6064 115.22C78.6608 117.471 80.3211 119.262 82.3351 120.321C82.3351 120.321 83.8209 118.421 87.9553 120.321C87.9553 120.321 98.1879 109.655 99.9192 104.09Z" fill="#263238"/>
<path d="M99.0387 99.3791C100.386 101.432 100.975 104.019 100.68 106.574C100.253 109.955 97.3462 110.299 95.2015 108.235C93.2506 106.365 91.1575 102.356 92.6175 99.4987C92.9489 98.8616 93.4148 98.3326 93.9715 97.9616C94.5281 97.5905 95.1572 97.3895 95.7995 97.3775C96.4417 97.3656 97.076 97.543 97.6427 97.8931C98.2094 98.2433 98.6898 98.7546 99.0387 99.3791V99.3791Z" fill="#FFC3BD"/>
<path d="M72.9258 90.9404C72.9296 94.6846 73.6164 98.3856 74.9413 101.801C82.9646 100.634 89.2308 96.3408 90.82 90.9404H72.9258Z" fill="#263238"/>
<path opacity="0.6" d="M72.9258 90.9404C72.9296 94.6846 73.6164 98.3856 74.9413 101.801C82.9646 100.634 89.2308 96.3408 90.82 90.9404H72.9258Z" fill="white"/>
<path d="M118.224 89.0712H110.329C109.761 77.5079 103.986 68.4277 93.7919 68.4277C83.598 68.4277 72.6806 77.5079 71.5953 89.0712H69.709C69.3073 89.1129 68.9335 89.3271 68.6614 89.6718C68.3892 90.0165 68.2383 90.4666 68.2383 90.9336C68.2383 91.4006 68.3892 91.8507 68.6614 92.1953C68.9335 92.54 69.3073 92.7542 69.709 92.7959H118.224C118.625 92.7542 118.999 92.54 119.271 92.1953C119.543 91.8507 119.694 91.4006 119.694 90.9336C119.694 90.4666 119.543 90.0165 119.271 89.6718C118.999 89.3271 118.625 89.1129 118.224 89.0712Z" fill="#407BFF"/>
<path opacity="0.1" d="M71.6094 89.0697H110.369C110.263 86.7769 109.921 84.5071 109.349 82.3086H73.444C72.4696 84.4081 71.8471 86.7022 71.6094 89.0697V89.0697Z" fill="black"/>
</svg>
