<svg width="34" height="34" viewBox="0 0 34 34" fill="none" xmlns="http://www.w3.org/2000/svg">
<path d="M31.6011 17L33.9234 12.8886C33.9954 12.7563 34.0133 12.6012 33.9733 12.456C33.9332 12.3109 33.8383 12.1869 33.7086 12.1104L29.6446 9.70046L29.5808 4.9909C29.5808 4.83688 29.5196 4.68918 29.4107 4.58027C29.3019 4.47137 29.1542 4.41018 29.0002 4.41018L24.2919 4.34631L21.8825 0.28133C21.8051 0.152583 21.6808 0.0588721 21.5357 0.0198878C21.3906 -0.0190965 21.2361 -0.000319496 21.1046 0.0722737L17 2.39512L12.8896 0.0722737C12.7581 -0.000319496 12.6036 -0.0190965 12.4585 0.0198878C12.3134 0.0588721 12.1891 0.152583 12.1117 0.28133L9.70234 4.34631L4.99399 4.41018C4.84001 4.41018 4.69234 4.47137 4.58347 4.58027C4.47459 4.68918 4.41343 4.83688 4.41343 4.9909L4.34956 9.70046L0.285633 12.1104C0.155929 12.1869 0.0610213 12.3109 0.0209426 12.456C-0.0191362 12.6012 -0.00125028 12.7563 0.0708253 12.8886L2.39307 17L0.0708253 21.1114C-0.00125028 21.2437 -0.0191362 21.3988 0.0209426 21.5439C0.0610213 21.6891 0.155929 21.8131 0.285633 21.8896L4.34956 24.2995L4.41343 29.0091C4.41343 29.1631 4.47459 29.3108 4.58347 29.4197C4.69234 29.5286 4.84001 29.5898 4.99399 29.5898L9.70234 29.6537L12.1117 33.7187C12.1891 33.8474 12.3134 33.9411 12.4585 33.9801C12.6036 34.0191 12.7581 34.0003 12.8896 33.9277L17 31.6049L21.1104 33.9277C21.196 33.9739 21.2918 33.9979 21.389 33.9974C21.4892 33.998 21.5879 33.9726 21.6754 33.9238C21.7629 33.8749 21.8362 33.8043 21.8883 33.7187L24.2977 29.6537L29.006 29.5898C29.16 29.5898 29.3077 29.5286 29.4165 29.4197C29.5254 29.3108 29.5866 29.1631 29.5866 29.0091L29.6504 24.2995L33.7144 21.8896C33.8441 21.8131 33.939 21.6891 33.9791 21.5439C34.0191 21.3988 34.0013 21.2437 33.9292 21.1114L31.6011 17ZM28.768 23.4691C28.6822 23.52 28.6109 23.5922 28.5611 23.6786C28.5112 23.7651 28.4845 23.8629 28.4835 23.9627L28.4255 28.4284L23.9609 28.4865C23.8612 28.4875 23.7633 28.5142 23.6769 28.564C23.5905 28.6139 23.5183 28.6852 23.4675 28.771L21.18 32.6153L17.2845 30.4318C17.1962 30.3809 17.0961 30.354 16.9942 30.354C16.8923 30.354 16.7922 30.3809 16.7039 30.4318L12.82 32.6153L10.5325 28.771C10.4817 28.6852 10.4095 28.6139 10.3231 28.564C10.2367 28.5142 10.1388 28.4875 10.0391 28.4865L5.57455 28.4284L5.51649 23.9685C5.51548 23.8687 5.48876 23.7709 5.43893 23.6844C5.38911 23.598 5.31784 23.5258 5.23202 23.4749L1.39451 21.1811L3.57161 17.2845C3.62257 17.1963 3.64939 17.0961 3.64939 16.9942C3.64939 16.8923 3.62257 16.7921 3.57161 16.7038L1.39451 12.8189L5.23202 10.5309C5.31784 10.48 5.38911 10.4078 5.43893 10.3214C5.48876 10.2349 5.51548 10.1371 5.51649 10.0373L5.57455 5.57161L10.0391 5.51354C10.1388 5.51252 10.2367 5.4858 10.3231 5.43596C10.4095 5.38612 10.4817 5.31483 10.5325 5.22899L12.82 1.38468L16.7155 3.56815C16.8038 3.61912 16.9039 3.64595 17.0058 3.64595C17.1077 3.64595 17.2078 3.61912 17.2961 3.56815L21.18 1.38468L23.4675 5.22899C23.5183 5.31483 23.5905 5.38612 23.6769 5.43596C23.7633 5.4858 23.8612 5.51252 23.9609 5.51354L28.4255 5.57161L28.4835 10.0373C28.4845 10.1371 28.5112 10.2349 28.5611 10.3214C28.6109 10.4078 28.6822 10.48 28.768 10.5309L32.6055 12.8189L30.4284 16.7155C30.3774 16.8037 30.3506 16.9039 30.3506 17.0058C30.3506 17.1077 30.3774 17.2079 30.4284 17.2962L32.6055 21.1927L28.768 23.4691ZM23.3862 11.9014C23.4943 12.0102 23.555 12.1573 23.555 12.3108C23.555 12.4642 23.4943 12.6114 23.3862 12.7202C20.569 15.5596 18.0408 18.672 15.8389 22.0115C15.7928 22.0885 15.7294 22.1537 15.6539 22.2021C15.5784 22.2504 15.4926 22.2806 15.4035 22.2903H15.3454C15.2648 22.2908 15.185 22.2746 15.111 22.2426C15.0371 22.2106 14.9706 22.1636 14.9158 22.1044L10.6138 17.3949C10.562 17.3388 10.5217 17.2731 10.4952 17.2015C10.4688 17.1299 10.4567 17.0537 10.4597 16.9774C10.4626 16.9011 10.4806 16.8261 10.5125 16.7568C10.5444 16.6874 10.5897 16.625 10.6458 16.5732C10.7018 16.5213 10.7675 16.481 10.8391 16.4546C10.9107 16.4281 10.9868 16.416 11.0631 16.419C11.1394 16.4219 11.2143 16.4399 11.2837 16.4718C11.353 16.5038 11.4154 16.5491 11.4672 16.6051L15.2583 20.7398C17.4146 17.5844 19.8513 14.6302 22.5386 11.913C22.5921 11.8542 22.6571 11.807 22.7295 11.7744C22.802 11.7418 22.8804 11.7244 22.9599 11.7233C23.0393 11.7222 23.1181 11.7375 23.1915 11.7681C23.2648 11.7987 23.3311 11.8441 23.3862 11.9014Z" fill="#163666"/>
</svg>
