<svg width="36" height="34" viewBox="0 0 36 34" fill="none" xmlns="http://www.w3.org/2000/svg">
<path d="M34.3977 11.9475L24.0165 10.468L19.4027 1.1445C19.0088 0.36289 18.5024 0 17.996 0C17.4896 0 16.9832 0.390805 16.5893 1.1445L11.9474 10.468L1.59431 11.9475C-0.121825 12.1987 -0.515691 13.3711 0.722174 14.5714L8.23376 21.8292L6.46136 32.046C6.2363 33.2742 6.71456 34 7.58669 34C7.92429 34 8.29003 33.8883 8.71203 33.665L17.996 28.8358L27.28 33.665C27.702 33.8883 28.0959 34 28.4053 34C29.2775 34 29.7276 33.2742 29.5307 32.046L27.7583 21.8292L35.2698 14.5714C36.5077 13.3711 36.142 12.1987 34.3977 11.9475ZM34.3977 13.6782L26.8861 20.936C26.5767 21.2151 26.4641 21.6338 26.5204 22.0525L28.2928 32.2693C28.3209 32.4926 28.3209 32.6601 28.3209 32.7438C28.2365 32.7159 28.0677 32.688 27.8708 32.5764L18.5868 27.7471C18.3899 27.6634 18.1929 27.6076 17.996 27.6076C17.7991 27.6076 17.6021 27.6634 17.4052 27.7471L8.12123 32.5764C7.89616 32.688 7.75549 32.7438 7.67109 32.7438C7.67109 32.6322 7.67109 32.4926 7.69923 32.2693L9.47162 22.0246C9.52789 21.6338 9.41536 21.2151 9.10589 20.908L1.59431 13.6502C1.42551 13.4828 1.34111 13.3711 1.28484 13.2874C1.36924 13.2315 1.53804 13.2036 1.76311 13.1757L12.1443 11.6962C12.5663 11.6404 12.9039 11.3892 13.1008 11.0263L17.7428 1.70279C17.8272 1.50739 17.9397 1.36782 17.996 1.31199C18.0523 1.39573 18.1648 1.50739 18.2492 1.70279L22.8912 10.9984C23.0881 11.3612 23.4257 11.6125 23.8477 11.6683L34.2289 13.1478C34.454 13.1757 34.5946 13.2315 34.7072 13.2594C34.6509 13.399 34.5665 13.5386 34.3977 13.6782Z" fill="#163666"/>
<path d="M20.5518 14.9091C20.7983 14.9091 21 14.7045 21 14.4545C21 14.2045 20.7983 14 20.5518 14H16.4734H15.2857H13.4482C13.2017 14 13 14.2045 13 14.4545C13 14.7045 13.2017 14.9091 13.4482 14.9091H15.2969H16.4734C17.3025 14.9091 18.0084 15.4886 18.2101 16.2727H13.4482C13.2017 16.2727 13 16.4773 13 16.7273C13 16.9773 13.2017 17.1818 13.4482 17.1818H18.2101C18.0084 17.9659 17.3137 18.5455 16.4734 18.5455H15.2857C15.1176 18.5455 14.9608 18.6477 14.8824 18.7955C14.8039 18.9545 14.8263 19.1364 14.9272 19.2727L18.3445 23.8182C18.4342 23.9318 18.5686 24 18.7031 24C18.7927 24 18.8936 23.9659 18.972 23.9091C19.1737 23.7614 19.2073 23.4659 19.0616 23.2727L16.1933 19.4545H16.4622C17.7955 19.4545 18.8936 18.4659 19.1176 17.1818H20.5518C20.7983 17.1818 21 16.9773 21 16.7273C21 16.4773 20.7983 16.2727 20.5518 16.2727H19.1176C19.028 15.75 18.8039 15.2841 18.4678 14.9091H20.5518Z" fill="#163666"/>
</svg>
