<svg width="40" height="35" viewBox="0 0 40 35" fill="none" xmlns="http://www.w3.org/2000/svg">
<path d="M28.5518 5.90909C28.7983 5.90909 29 5.70455 29 5.45455C29 5.20455 28.7983 5 28.5518 5H24.4734H23.2857H21.4482C21.2017 5 21 5.20455 21 5.45455C21 5.70455 21.2017 5.90909 21.4482 5.90909H23.2969H24.4734C25.3025 5.90909 26.0084 6.48864 26.2101 7.27273H21.4482C21.2017 7.27273 21 7.47727 21 7.72727C21 7.97727 21.2017 8.18182 21.4482 8.18182H26.2101C26.0084 8.96591 25.3137 9.54545 24.4734 9.54545H23.2857C23.1176 9.54545 22.9608 9.64773 22.8824 9.79545C22.8039 9.95455 22.8263 10.1364 22.9272 10.2727L26.3445 14.8182C26.4342 14.9318 26.5686 15 26.7031 15C26.7927 15 26.8936 14.9659 26.972 14.9091C27.1737 14.7614 27.2073 14.4659 27.0616 14.2727L24.1933 10.4545H24.4622C25.7955 10.4545 26.8936 9.46591 27.1176 8.18182H28.5518C28.7983 8.18182 29 7.97727 29 7.72727C29 7.47727 28.7983 7.27273 28.5518 7.27273H27.1176C27.028 6.75 26.8039 6.28409 26.4678 5.90909H28.5518Z" fill="#163666"/>
<path d="M39.8946 24.1602C39.5049 22.8233 38.145 22.0593 36.8519 22.445L29.5174 23.9198C29.08 23.0308 28.1314 22.4133 27.0337 22.4133H23.501C23.4893 22.4132 22.3078 22.401 20.2659 21.8248C18.7594 21.3997 18.0333 21.0499 17.5031 20.7945C17.2699 20.6822 17.0685 20.5851 16.8609 20.5136C16.285 20.3149 13.2427 20.2838 11.9006 20.28V20.1054C11.9006 19.2202 11.2048 18.5 10.3496 18.5H4V19.5H10.3496C10.5597 19.5 10.7373 19.8879 10.7373 20.1054V30.1394C10.7373 30.357 10.5597 30.5408 10.3496 30.5408H4V31.5L10.3496 31.4887C11.0632 31.4887 11.6642 31.2427 11.8442 30.5623C13.3702 30.5949 14.1899 31.0727 14.1945 31.0754L14.2431 31.1056L20.2126 33.3341C21.853 33.9365 23.0634 34.0876 23.8652 34.0876C24.5807 34.0876 24.971 33.9672 25.0503 33.9398L25.0895 33.9263L29.9678 31.4016L38.2906 27.3265C39.5646 26.9018 40.2829 25.4921 39.8946 24.1602ZM37.9104 26.188L37.8689 26.201L29.4647 30.316L24.6575 32.8037C24.4383 32.8575 23.0991 33.1165 20.6044 32.2003L14.7342 30.0089C14.4912 29.8748 13.5163 29.3995 11.9006 29.3591V21.4841C13.9484 21.4903 16.1504 21.5539 16.4931 21.6558C16.6378 21.7057 16.8031 21.7854 17.0123 21.8862C17.5482 22.1443 18.3581 22.5345 19.9599 22.9864C22.1699 23.6102 23.4463 23.6173 23.4996 23.6173H27.0337C27.9038 23.6173 28.6117 24.2475 28.6117 25.0221C28.6117 25.7967 27.9038 26.4269 27.0337 26.4269H23.506L21.3371 26.377C21.1061 26.3469 20.195 26.2746 19.5433 26.8824C19.2431 27.1624 18.8952 27.6939 18.943 28.6355C18.9593 28.9568 19.2161 29.2059 19.5234 29.2059C19.5336 29.2059 19.544 29.2057 19.5544 29.2051C19.8752 29.1876 20.1216 28.9043 20.1046 28.5722C20.0857 28.1987 20.1578 27.932 20.3193 27.7794C20.5726 27.54 21.0438 27.5494 21.2002 27.5728L21.2389 27.5791L23.4867 27.6308L27.0337 27.6309C28.5196 27.6309 29.7322 26.4999 29.773 25.095L37.1008 23.6215L37.1579 23.6069C37.8451 23.3921 38.5734 23.7964 38.7809 24.5081C38.9884 25.2196 38.5979 25.9733 37.9104 26.188Z" fill="#163666"/>
<circle cx="25" cy="9" r="8.5" stroke="#163666"/>
<path d="M1 20C1 19.4477 1.44772 19 2 19H10.5C11.0523 19 11.5 19.4477 11.5 20V30C11.5 30.5523 11.0523 31 10.5 31H2C1.44772 31 1 30.5523 1 30V20Z" stroke="#163666"/>
</svg>
