<svg width="36" height="34" viewBox="0 0 36 34" fill="none" xmlns="http://www.w3.org/2000/svg">
<path d="M34.7472 23.0122H31.5474H30.4475V15.2378C30.4475 14.5122 29.8476 13.8902 29.1476 13.8902H25.9479H22.7482H20.5983V5.90854C20.5983 4.97561 19.8484 4.19817 18.9485 4.19817H15.8987C15.6987 3.31707 14.9488 2.69512 14.0489 2.69512H12.249V2.02134C12.249 0.932927 11.3991 0 10.2992 0C9.19925 0 8.34932 0.881097 8.34932 2.02134V2.69512H6.54947C5.64954 2.69512 4.8996 3.31707 4.69962 4.19817H1.64987C0.74994 4.19817 0 4.97561 0 5.90854V31.0976C0 32.0305 0.74994 32.8079 1.64987 32.8079H12.699C12.749 33.4817 13.2989 34 13.9989 34H23.5481C23.8481 34 24.148 33.8963 24.348 33.689C24.548 33.8445 24.848 34 25.148 34H34.6972C35.3971 34 35.9971 33.378 35.9971 32.6524V24.3598C36.0471 23.5823 35.4471 23.0122 34.7472 23.0122ZM28.8477 24.0488H29.9476H31.0475V26.6402L30.2475 26.0183C30.1476 25.9665 30.0476 25.9146 29.9476 25.9146C29.8476 25.9146 29.7476 25.9665 29.6476 26.0183L28.8477 26.6402V24.0488ZM29.4476 15.186V22.9604H28.3477H25.148C25.048 22.9604 24.998 22.9604 24.898 22.9604C24.848 22.9604 24.848 22.9604 24.848 22.9604C24.798 22.9604 24.748 23.0122 24.698 23.0122C24.648 23.0122 24.648 23.0122 24.598 23.064C24.548 23.064 24.498 23.1158 24.448 23.1158L24.398 23.1677C24.398 23.1677 24.348 23.1677 24.348 23.2195C24.348 23.2195 24.298 23.2195 24.298 23.1677L24.248 23.1158C24.198 23.064 24.148 23.064 24.098 23.064C24.048 23.064 24.048 23.064 23.9981 23.0122C23.9481 23.0122 23.8981 22.9604 23.8481 22.9604H23.7981C23.6981 22.9604 23.6481 22.9604 23.5481 22.9604H20.3483H19.2484V15.186C19.2484 15.0305 19.3984 14.875 19.5484 14.875H20.0984H22.2482V18.503C22.2482 18.7104 22.3482 18.8659 22.5482 18.9695C22.6982 19.0732 22.8981 19.0213 23.0481 18.9177L24.348 17.8811L25.6479 18.9177C25.7479 18.9695 25.8479 19.0213 25.9479 19.0213C26.0479 19.0213 26.0979 19.0213 26.1479 18.9695C26.2979 18.8659 26.4479 18.7104 26.4479 18.503V14.875H29.1476C29.3476 14.875 29.4476 15.0305 29.4476 15.186ZM17.6986 24.0488H18.7985H19.8984V26.6402L19.0984 26.0183C18.8985 25.8628 18.6985 25.8628 18.4985 26.0183L17.6986 26.6402V24.0488ZM25.4979 14.875V17.4665L24.698 16.8445C24.598 16.7927 24.498 16.7409 24.398 16.7409C24.298 16.7409 24.198 16.7927 24.098 16.8445L23.2981 17.5183V14.9268H25.4979V14.875ZM6.59947 3.73171H8.89928C9.19925 3.73171 9.39924 3.52439 9.39924 3.21341V2.02134C9.39924 1.50305 9.7992 1.03659 10.3492 1.03659C10.8991 1.03659 11.2991 1.45122 11.2991 2.02134V3.21341C11.2991 3.52439 11.4991 3.73171 11.799 3.73171H14.0989C14.5988 3.73171 15.0488 4.14634 15.0488 4.71646C15.0488 5.23475 14.6488 5.70122 14.0989 5.70122H6.59947C6.09951 5.70122 5.64954 5.28658 5.64954 4.71646C5.64954 4.14634 6.09951 3.73171 6.59947 3.73171ZM1.04992 31.0976V5.90854C1.04992 5.54573 1.34989 5.23475 1.69986 5.23475H4.69962C4.69962 5.28658 4.74961 5.33841 4.74961 5.44207C4.74961 5.4939 4.74962 5.4939 4.79961 5.54573C4.84961 5.64939 4.8996 5.75305 4.9496 5.85671C4.9496 5.85671 4.9496 5.90854 4.99959 5.90854C5.04959 6.01219 5.09959 6.06402 5.19958 6.11585C5.24957 6.16768 5.24957 6.16768 5.29957 6.21951C5.34957 6.27134 5.39956 6.32317 5.49955 6.375C5.54955 6.42683 5.54955 6.42683 5.59955 6.42683C5.64954 6.47866 5.74953 6.47866 5.79953 6.53049C5.84953 6.53049 5.89952 6.58232 5.89952 6.58232C5.94952 6.63414 6.04951 6.63414 6.09951 6.63414C6.1495 6.63414 6.1495 6.63415 6.1995 6.68597C6.29949 6.68597 6.44948 6.7378 6.54947 6.7378H14.0489C14.1489 6.7378 14.2988 6.7378 14.3988 6.68597C14.4488 6.68597 14.4488 6.68597 14.4988 6.63414C14.5988 6.63414 14.6488 6.58232 14.7488 6.58232C14.7988 6.58232 14.8488 6.53049 14.8488 6.53049C14.8988 6.47866 14.9988 6.47866 15.0488 6.42683C15.0988 6.42683 15.0988 6.375 15.1488 6.375C15.1988 6.32317 15.2488 6.27134 15.3488 6.21951C15.3988 6.16768 15.3988 6.16768 15.4487 6.11585C15.4987 6.06402 15.5987 5.96036 15.6487 5.85671C15.6487 5.85671 15.6487 5.80488 15.6987 5.80488C15.7487 5.70122 15.7987 5.59756 15.8487 5.4939C15.8487 5.44207 15.8487 5.44207 15.8987 5.39024C15.8987 5.33841 15.9487 5.28658 15.9487 5.18293H18.9485C19.2984 5.18293 19.5984 5.4939 19.5984 5.85671V13.7866H19.5484C18.8485 13.7866 18.2485 14.4085 18.2485 15.1341V22.9085H17.1486H13.9489C13.8489 22.9085 13.7489 22.9085 13.6489 22.9604C13.5989 22.9604 13.5989 22.9604 13.5489 23.0122C13.4989 23.0122 13.3989 23.064 13.3489 23.064C13.2989 23.064 13.2989 23.1158 13.2489 23.1158C13.1989 23.1677 13.1489 23.1677 13.0989 23.2195L13.0489 23.2713H6.29949C5.39956 23.2713 4.64962 24.0488 4.64962 24.9817C4.64962 25.9146 5.39956 26.6921 6.29949 26.6921H12.699V31.6677H1.69986C1.34989 31.7713 1.04992 31.4604 1.04992 31.0976ZM12.699 25.7591H6.29949C5.94952 25.7591 5.64954 25.4482 5.64954 25.0854C5.64954 24.7226 5.94952 24.4116 6.29949 24.4116H12.699V25.7591ZM23.5981 32.9634H13.9989C13.8489 32.9634 13.6989 32.8079 13.6989 32.6524V32.2896V26.2774V24.3598C13.6989 24.3079 13.6989 24.2561 13.7489 24.2043C13.7489 24.2043 13.7489 24.1524 13.7989 24.1524C13.7989 24.1524 13.8489 24.1006 13.8989 24.1006C13.9489 24.1006 13.9489 24.1006 13.9989 24.1006H16.6986V27.7287C16.6986 27.936 16.7986 28.0915 16.9986 28.1951C17.0486 28.2469 17.1486 28.2469 17.1986 28.2469C17.2986 28.2469 17.3986 28.1951 17.4986 28.1433L18.7985 27.1067L20.0984 28.1433C20.2484 28.2469 20.4483 28.2988 20.5983 28.1951C20.7483 28.0915 20.8983 27.936 20.8983 27.7287V24.1006H23.5981C23.7481 24.1006 23.8981 24.2561 23.8981 24.4116V32.7043C23.8981 32.8079 23.7481 32.9634 23.5981 32.9634ZM35.0472 32.6524C35.0472 32.8079 34.8972 32.9634 34.7472 32.9634H25.198C25.048 32.9634 24.898 32.8079 24.898 32.6524V24.3598C24.898 24.2043 25.048 24.0488 25.198 24.0488H27.8977V27.6768C27.8977 27.8841 27.9977 28.0396 28.1977 28.1433C28.2477 28.1951 28.3477 28.1951 28.3977 28.1951C28.4977 28.1951 28.5977 28.1433 28.6977 28.0915L29.9976 27.0549L31.2975 28.0915C31.4475 28.1951 31.6474 28.2469 31.7974 28.1433C31.9474 28.0396 32.0974 27.8841 32.0974 27.6768V24.0488H34.7972C34.9472 24.0488 35.0972 24.2043 35.0972 24.3598V32.6524H35.0472Z" fill="#163666"/>
<path d="M6.2983 13.6312H14.3477C15.2476 13.6312 15.9975 12.8537 15.9975 11.9208C15.9975 10.9879 15.2476 10.2104 14.3477 10.2104H6.2983C5.39838 10.2104 4.64844 10.9879 4.64844 11.9208C4.64844 12.8537 5.39838 13.6312 6.2983 13.6312ZM6.2983 11.247H14.3477C14.6976 11.247 14.9976 11.558 14.9976 11.9208C14.9976 12.2836 14.6976 12.5946 14.3477 12.5946H6.2983C5.94833 12.5946 5.64836 12.2836 5.64836 11.9208C5.64836 11.558 5.94833 11.247 6.2983 11.247Z" fill="#163666"/>
<path d="M6.2983 20.2132H14.3477C15.2476 20.2132 15.9975 19.4358 15.9975 18.5028C15.9975 17.5699 15.2476 16.7925 14.3477 16.7925H6.2983C5.39838 16.7925 4.64844 17.5699 4.64844 18.5028C4.64844 19.4358 5.39838 20.2132 6.2983 20.2132ZM6.2983 17.8291H14.3477C14.6976 17.8291 14.9976 18.14 14.9976 18.5028C14.9976 18.8657 14.6976 19.1766 14.3477 19.1766H6.2983C5.94833 19.1766 5.64836 18.8657 5.64836 18.5028C5.64836 18.14 5.94833 17.8291 6.2983 17.8291Z" fill="#163666"/>
</svg>
