<svg width="31" height="33" viewBox="0 0 31 33" fill="none" xmlns="http://www.w3.org/2000/svg">
<path d="M9.66057 24H2.33875C2.15176 24 2 24.1493 2 24.3333V32.6667C2 32.8507 2.15176 33 2.33875 33H9.66125C9.84824 33 10 32.8507 10 32.6667V24.3333C9.99932 24.1486 9.84824 24 9.66057 24ZM9 32H3V25H9V32Z" fill="#163666"/>
<path d="M19.6612 19H12.3388C12.1518 19 12 19.1507 12 19.3365V32.6635C12 32.8493 12.1518 33 12.3388 33H19.6612C19.8482 33 20 32.8493 20 32.6635V19.3365C20 19.1507 19.8489 19 19.6612 19ZM19 32H13V20H19V32Z" fill="#163666"/>
<path d="M30.6612 8.94531H23.3388C23.1518 8.94531 23 9.09716 23 9.28425V32.6064C23 32.7935 23.1518 32.9453 23.3388 32.9453H30.6612C30.8482 32.9453 31 32.7935 31 32.6064V9.28425C31 9.09716 30.8482 8.94531 30.6612 8.94531ZM30 31.9809L24 32V9.94531H30V31.9809Z" fill="#163666"/>
<path d="M21.73 8.07022C21.7114 8.29102 21.8341 8.49007 22.0038 8.51505C22.0156 8.51666 22.0268 8.51747 22.0385 8.51747C22.1941 8.51747 22.3285 8.36516 22.3459 8.15886L22.9996 0.442822C23.0015 0.42187 22.9959 0.401724 22.9953 0.380772C22.994 0.351761 22.9953 0.323556 22.9891 0.296157C22.9835 0.27037 22.9736 0.247806 22.9643 0.224436C22.9556 0.201872 22.9494 0.178503 22.9377 0.15755C22.9352 0.154327 22.9346 0.149492 22.9321 0.146269C22.9191 0.123705 22.8992 0.109199 22.8831 0.0914707C22.8726 0.0801887 22.8664 0.0664891 22.8546 0.0568188C22.8528 0.0552071 22.8503 0.0552074 22.8484 0.0535957C22.846 0.051984 22.8447 0.0487603 22.8422 0.0471485C22.8205 0.0310315 22.7958 0.0253908 22.7716 0.0165264C22.7586 0.0116913 22.7474 0.00363276 22.735 0.0012152C22.7171 -0.00200821 22.6979 0.00202087 22.6793 0.00363258C22.6762 0.00363258 22.6731 0.00443876 22.6706 0.00443876C22.6514 0.00605046 22.6322 0.00443868 22.6142 0.0108855C22.6086 0.0124972 22.6037 0.0116911 22.5987 0.0141087L16.7796 2.22859C16.6154 2.29145 16.5212 2.51467 16.5695 2.72903C16.6085 2.9047 16.7325 3.01833 16.8663 3.01833C16.8948 3.01833 16.9246 3.01349 16.9537 3.00221L21.9741 1.09234C19.946 4.99105 12.2003 18.1941 0.309826 18.1941C0.138802 18.1941 0 18.3747 0 18.5971C0 18.8195 0.138802 19 0.309826 19C12.0628 19 19.8413 6.47544 22.2436 2.00215L21.73 8.07022Z" fill="#163666"/>
</svg>
