<svg width="52" height="67" viewBox="0 0 52 67" fill="none" xmlns="http://www.w3.org/2000/svg">
<path d="M12.0887 66.9623H4.04357C1.81403 66.9623 0 65.2689 0 63.186V40.5526C0 38.4713 1.81403 36.7764 4.04357 36.7764H12.0887C14.3182 36.7764 16.1339 38.4713 16.1339 40.5526V63.186C16.1339 65.2689 14.3182 66.9623 12.0887 66.9623ZM3.69307 38.8575C2.63791 38.8575 2.11033 39.8425 2.11033 40.5999V63.2366C2.11033 63.9754 2.63791 64.9604 3.16549 64.9604H12.0887C12.662 64.9604 13.4533 63.9754 13.4533 63.186L13.7171 40.335C13.7171 39.5963 12.9258 38.8575 12.0887 38.8575H3.69307Z" fill="#163666"/>
<path d="M41.8951 67H22.8699C21.8858 67 20.9183 66.6595 20.0363 66.2193L14.8319 63.6171C14.044 63.2231 13.6573 62.5834 14.0512 61.7955C14.4452 61.0076 15.2861 60.9142 16.0755 61.3082L21.4472 63.994C21.8874 64.2141 22.3786 64.3306 22.8699 64.3306H42.2002C42.7824 64.3306 43.3247 64.0164 43.6149 63.5092L45.4156 60.3576C47.666 56.4198 48.8558 51.9381 48.8558 47.4021V42.0049C48.8558 40.2442 47.4236 38.8119 45.6628 38.8119H33.6579C32.6005 38.8119 31.6148 38.2888 31.0215 37.4132C30.4298 36.5376 30.3102 35.4275 30.7025 34.4466C32.165 30.7911 32.9067 26.9394 32.9067 22.9983V21.1498C32.9067 20.3364 32.2448 19.6729 31.4298 19.6729H30.4377C29.7822 19.6729 29.1985 20.1131 29.0183 20.7431L28.3931 22.9298C27.0533 27.614 24.8316 31.9171 21.7885 35.7226C20.2191 37.6859 17.8778 38.8119 15.3626 38.8119H10.5779C9.69747 38.8119 9.36719 38.7018 9.36719 37.8214C9.36719 36.941 9.52769 36.7805 10.4081 36.7805L15.6125 36.5203C17.1516 36.5203 19.8553 34.0798 20.817 32.8772C23.5938 29.4035 25.06 26.2222 26.2817 21.9478L27.0624 18.8251C27.6318 16.8347 28.6337 17.0036 30.7055 17.0036L31.4862 17.0036C34.0604 17.0036 35.3895 18.5756 35.3895 21.1498V22.9298C35.3895 27.2791 34.66 31.9663 33.0475 35.9999H45.6628C49.1828 35.9999 51.5234 38.485 51.5234 42.0049V47.4497C51.5234 52.5407 50.4066 57.3425 47.8803 61.762L46.0587 64.8847C45.2022 66.3823 43.6192 67 41.8951 67Z" fill="#163666"/>
<rect x="15" y="2.44043" width="2" height="14.0396" rx="1" transform="rotate(-30 15 2.44043)" fill="#163666"/>
<rect x="29.75" width="2" height="14.0396" rx="1" fill="#163666"/>
<rect x="44.7695" y="1.44043" width="2" height="14.0396" rx="1" transform="rotate(30 44.7695 1.44043)" fill="#163666"/>
</svg>
