<svg width="38" height="34" viewBox="0 0 38 34" fill="none" xmlns="http://www.w3.org/2000/svg">
<path d="M21.6639 6.63636C21.8487 6.63636 22 6.49318 22 6.31818C22 6.14318 21.8487 6 21.6639 6H18.605H17.7143H16.3361C16.1513 6 16 6.14318 16 6.31818C16 6.49318 16.1513 6.63636 16.3361 6.63636H17.7227H18.605C19.2269 6.63636 19.7563 7.04205 19.9076 7.59091H16.3361C16.1513 7.59091 16 7.73409 16 7.90909C16 8.08409 16.1513 8.22727 16.3361 8.22727H19.9076C19.7563 8.77614 19.2353 9.18182 18.605 9.18182H17.7143C17.5882 9.18182 17.4706 9.25341 17.4118 9.35682C17.3529 9.46818 17.3697 9.59545 17.4454 9.69091L20.0084 12.8727C20.0756 12.9523 20.1765 13 20.2773 13C20.3445 13 20.4202 12.9761 20.479 12.9364C20.6303 12.833 20.6555 12.6261 20.5462 12.4909L18.395 9.81818H18.5966C19.5966 9.81818 20.4202 9.12614 20.5882 8.22727H21.6639C21.8487 8.22727 22 8.08409 22 7.90909C22 7.73409 21.8487 7.59091 21.6639 7.59091H20.5882C20.521 7.225 20.3529 6.89886 20.1008 6.63636H21.6639Z" fill="#163666"/>
<path d="M37.525 33.0459H36.3693V19.4771C36.3693 19.2136 36.1566 19 35.8943 19H27.6159C27.3536 19 27.1409 19.2136 27.1409 19.4771V33.0459H23.6143V22.2642C23.6143 22.0007 23.4016 21.7871 23.1393 21.7871H14.8607C14.5984 21.7871 14.3857 22.0007 14.3857 22.2642V33.0459H10.8591V25.8733C10.8591 25.6098 10.6464 25.3962 10.3841 25.3962H2.10573C1.84341 25.3962 1.63073 25.6098 1.63073 25.8733V33.0459H0.475C0.212683 33.0459 0 33.2595 0 33.5229C0 33.7864 0.212683 34 0.475 34H37.525C37.7873 34 38 33.7864 38 33.5229C38 33.2595 37.7873 33.0459 37.525 33.0459ZM9.90913 33.0459H2.58072V26.3503H9.90913V33.0459ZM22.6643 33.0459H15.3357V22.7412H22.6643V33.0459ZM35.4193 33.0459H28.0909V19.9541H35.4193V33.0459Z" fill="#163666"/>
<path d="M28 8.99538C28 8.87409 27.9446 8.76048 27.8515 8.69005L25.0351 6.56645L25.6091 2.95516C25.6281 2.8357 25.5914 2.71368 25.5104 2.62806C25.4296 2.54245 25.3149 2.50384 25.2016 2.52342L21.7928 3.13152L19.7882 0.147909C19.6552 -0.049303 19.3448 -0.049303 19.2118 0.147909L17.2072 3.13152L13.7984 2.52342C13.6863 2.50421 13.5704 2.54263 13.4896 2.62806C13.4086 2.71368 13.3719 2.8357 13.3909 2.95516L13.9649 6.56645L11.1485 8.69005C11.0554 8.76048 11 8.87409 11 8.99538C11 9.11667 11.0554 9.23028 11.1485 9.30071L13.9649 11.4241L13.3909 15.0354C13.3719 15.1549 13.4086 15.2769 13.4896 15.3625C13.5704 15.4481 13.6861 15.4873 13.7984 15.4672L17.2072 14.8591L19.2118 17.8427C19.2783 17.9413 19.3855 18 19.5 18C19.6145 18 19.7217 17.9413 19.7882 17.8427L21.7928 14.8591L25.2016 15.4672C25.3152 15.4876 25.4296 15.4483 25.5104 15.3625C25.5914 15.2769 25.6281 15.1549 25.6091 15.0354L25.0351 11.4241L27.8515 9.30071C27.9446 9.23028 28 9.11667 28 8.99538ZM24.4444 10.9496C24.334 11.0328 24.2782 11.1755 24.3007 11.3171L24.8291 14.6408L21.6917 14.081C21.5588 14.0583 21.4237 14.1165 21.3448 14.2332L19.5 16.9792L17.6552 14.2332C17.588 14.1335 17.4803 14.0759 17.367 14.0759C17.3475 14.0759 17.3279 14.0775 17.3083 14.081L14.1709 14.6408L14.6993 11.3171C14.7218 11.1755 14.666 11.0328 14.5556 10.9496L11.9636 8.99538L14.5556 7.041C14.666 6.95777 14.7218 6.81507 14.6993 6.67347L14.1709 3.34977L17.3083 3.90958C17.4433 3.93409 17.5766 3.87427 17.6552 3.75737L19.5 1.0114L21.3448 3.75737C21.4237 3.87427 21.5588 3.93409 21.6917 3.90958L24.8291 3.34977L24.3007 6.67347C24.2782 6.81507 24.334 6.95777 24.4444 7.041L27.0364 8.99538L24.4444 10.9496Z" fill="#163666"/>
</svg>
