<svg width="36" height="34" viewBox="0 0 36 34" fill="none" xmlns="http://www.w3.org/2000/svg">
<path d="M30.1018 0.00977364L26.9763 0.600668C26.867 0.620345 26.7699 0.683722 26.7061 0.776882C26.6424 0.870043 26.6172 0.985375 26.6362 1.09756L27.2117 4.30718C27.2191 4.3646 27.2377 4.41988 27.2665 4.4697C27.2952 4.51953 27.3335 4.56287 27.379 4.59713C27.4244 4.63139 27.4762 4.65585 27.5311 4.66906C27.586 4.68226 27.643 4.68394 27.6985 4.67398C27.7541 4.66401 27.8071 4.64262 27.8544 4.61109C27.9017 4.57956 27.9423 4.53853 27.9738 4.49047C28.0053 4.44242 28.027 4.38832 28.0376 4.33144C28.0482 4.27456 28.0475 4.21606 28.0355 4.15946L27.6301 1.90332C32.4809 5.03821 35.1815 10.4296 35.1629 15.9773C35.1621 16.0343 35.1724 16.0908 35.1931 16.1437C35.2137 16.1965 35.2444 16.2446 35.2834 16.2852C35.3223 16.3257 35.3687 16.3579 35.4199 16.3799C35.471 16.4019 35.526 16.4132 35.5814 16.4132C35.6369 16.4132 35.6918 16.4019 35.7429 16.3799C35.7941 16.3579 35.8405 16.3257 35.8794 16.2852C35.9184 16.2446 35.9491 16.1965 35.9698 16.1437C35.9904 16.0908 36.0007 16.0343 35.9999 15.9773C36.0193 10.1896 33.2256 4.55276 28.2056 1.24528L30.2457 0.855826C30.3016 0.848201 30.3554 0.82905 30.404 0.799524C30.4525 0.769999 30.4947 0.730707 30.528 0.68401C30.5614 0.637313 30.5852 0.584173 30.5981 0.527782C30.6109 0.471392 30.6126 0.412914 30.6029 0.355861C30.5932 0.298808 30.5723 0.244356 30.5416 0.195778C30.5109 0.147199 30.471 0.105495 30.4242 0.0731699C30.3774 0.040845 30.3247 0.0185663 30.2693 0.00767201C30.2139 -0.00322225 30.157 -0.0025074 30.1018 0.00977364ZM10.7729 0.708103C10.7222 0.716775 10.6734 0.734986 10.6291 0.761821C5.74465 3.63414 2.37812 8.9439 2.08929 15.0507L0.742277 13.4392C0.703039 13.3889 0.653281 13.3483 0.596686 13.3204C0.540091 13.2925 0.47811 13.278 0.415333 13.278C0.333812 13.2787 0.254248 13.3037 0.186411 13.3502C0.118574 13.3966 0.0654185 13.4624 0.0334725 13.5394C0.00152653 13.6164 -0.00781908 13.7013 0.00658326 13.7837C0.0209856 13.8661 0.0585089 13.9424 0.114545 14.0032L2.16775 16.4877C2.2408 16.5728 2.34367 16.6248 2.45392 16.6323C2.56416 16.6399 2.67284 16.6024 2.75625 16.5279L5.17564 14.4195C5.22154 14.3847 5.26001 14.3406 5.2887 14.2899C5.31738 14.2392 5.33567 14.183 5.34243 14.1248C5.34919 14.0666 5.34429 14.0076 5.32802 13.9514C5.31175 13.8953 5.28446 13.8431 5.24783 13.7981C5.2112 13.7532 5.166 13.7164 5.11502 13.69C5.06403 13.6637 5.00833 13.6483 4.95134 13.6449C4.89436 13.6414 4.8373 13.65 4.78366 13.6701C4.73002 13.6901 4.68094 13.7212 4.63945 13.7615L2.92626 15.2656C3.1438 9.38209 6.357 4.27218 11.0475 1.51387C11.1397 1.46772 11.2122 1.38843 11.2512 1.29105C11.2902 1.19366 11.293 1.08497 11.2592 0.985579C11.2253 0.886192 11.1571 0.803033 11.0674 0.751885C10.9778 0.700736 10.873 0.685156 10.7729 0.708103ZM16.4879 3.91773C16.3934 3.93946 16.3092 3.99417 16.2495 4.07253C16.1899 4.1509 16.1586 4.24806 16.1609 4.34747V7.38252L15.0232 7.77197L13.0092 5.69041C12.9702 5.64899 12.9234 5.61606 12.8718 5.59356C12.8201 5.57107 12.7645 5.55948 12.7084 5.55948C12.6523 5.55948 12.5967 5.57107 12.5451 5.59356C12.4934 5.61606 12.4467 5.64899 12.4076 5.69041L9.09896 9.08805C9.0215 9.16851 8.97806 9.27708 8.97806 9.39022C8.97806 9.50335 9.0215 9.61192 9.09896 9.69238L11.126 11.7739L10.7468 12.9423H7.79119C7.6802 12.9423 7.57376 12.9876 7.49528 13.0682C7.4168 13.1488 7.37271 13.2581 7.3727 13.372V18.4215C7.37271 18.5355 7.4168 18.6448 7.49528 18.7254C7.57376 18.8059 7.6802 18.8512 7.79119 18.8512H10.7468L11.126 20.0062L9.09896 22.0877C9.0215 22.1682 8.97806 22.2768 8.97806 22.3899C8.97806 22.503 9.0215 22.6116 9.09896 22.692L12.4076 26.0897C12.4467 26.1311 12.4934 26.164 12.5451 26.1865C12.5967 26.209 12.6523 26.2206 12.7084 26.2206C12.7645 26.2206 12.8201 26.209 12.8718 26.1865C12.9234 26.164 12.9702 26.1311 13.0092 26.0897L15.0232 24.0216L16.1609 24.411V27.4461C16.161 27.56 16.2051 27.6693 16.2835 27.7499C16.362 27.8305 16.4685 27.8758 16.5794 27.8758H21.4967C21.6077 27.8758 21.7141 27.8305 21.7926 27.7499C21.8711 27.6693 21.9151 27.56 21.9152 27.4461V24.411L23.0398 24.0081L25.0669 26.0897C25.1452 26.1692 25.251 26.2138 25.3611 26.2138C25.4713 26.2138 25.5771 26.1692 25.6554 26.0897L28.9641 22.692C29.0415 22.6116 29.085 22.503 29.085 22.3899C29.085 22.2768 29.0415 22.1682 28.9641 22.0877L26.9501 20.0062L27.3294 18.8512H30.2849C30.3959 18.8512 30.5023 18.8059 30.5808 18.7254C30.6593 18.6448 30.7034 18.5355 30.7034 18.4215V13.372C30.7034 13.2581 30.6593 13.1488 30.5808 13.0682C30.5023 12.9876 30.3959 12.9423 30.2849 12.9423H27.3294L26.9501 11.7739L28.9641 9.69238C29.0415 9.61192 29.085 9.50335 29.085 9.39022C29.085 9.27708 29.0415 9.16851 28.9641 9.08805L25.6554 5.69041C25.5771 5.61087 25.4713 5.56627 25.3611 5.56627C25.251 5.56627 25.1452 5.61087 25.0669 5.69041L23.0529 7.77197L21.9152 7.38252V4.34747C21.9151 4.2335 21.8711 4.1242 21.7926 4.04361C21.7141 3.96302 21.6077 3.91774 21.4967 3.91773H16.5794C16.549 3.91429 16.5183 3.91429 16.4879 3.91773ZM16.9979 4.77721H21.0782V7.6914C21.0793 7.78096 21.1076 7.86794 21.1592 7.94018C21.2108 8.01241 21.283 8.06629 21.3659 8.09428L23.0268 8.67174C23.1013 8.69721 23.1813 8.70065 23.2576 8.68165C23.3339 8.66265 23.4035 8.62199 23.4583 8.56431L25.3677 6.60361L28.0879 9.39693L26.1785 11.3576C26.1223 11.414 26.0827 11.4854 26.0642 11.5638C26.0457 11.6422 26.0491 11.7243 26.0739 11.8008L26.6232 13.5063C26.6511 13.5936 26.7056 13.6694 26.7785 13.7226C26.8515 13.7757 26.9391 13.8035 27.0286 13.8018H29.8664V17.9918H27.0286C26.9391 17.99 26.8515 18.0178 26.7785 18.071C26.7056 18.1241 26.6511 18.1999 26.6232 18.2872L26.0739 19.9927C26.0491 20.0692 26.0457 20.1514 26.0642 20.2297C26.0827 20.3081 26.1223 20.3796 26.1785 20.4359L28.0748 22.3832L25.3677 25.1765L23.4583 23.2158C23.4021 23.1604 23.3318 23.1223 23.2556 23.1057C23.1793 23.0891 23.1001 23.0946 23.0268 23.1218L21.3659 23.6858C21.283 23.7138 21.2108 23.7677 21.1592 23.8399C21.1076 23.9122 21.0793 23.9991 21.0782 24.0887V27.0163H16.9979V24.0887C16.9968 23.9991 16.9685 23.9122 16.9169 23.8399C16.8653 23.7677 16.7931 23.7138 16.7102 23.6858L15.0493 23.1218C14.976 23.0946 14.8968 23.0891 14.8205 23.1057C14.7443 23.1223 14.674 23.1604 14.6178 23.2158L12.7084 25.1765L10.0013 22.3832L11.8976 20.4359C11.9538 20.3796 11.9934 20.3081 12.0119 20.2297C12.0304 20.1514 12.027 20.0692 12.0022 19.9927L11.4399 18.2872C11.4126 18.2021 11.3602 18.1279 11.2898 18.0749C11.2195 18.022 11.1348 17.9929 11.0475 17.9918H8.20967V13.8018H11.0475C11.1348 13.8007 11.2195 13.7716 11.2898 13.7186C11.3602 13.6656 11.4126 13.5914 11.4399 13.5063L12.0022 11.8008C12.027 11.7243 12.0304 11.6422 12.0119 11.5638C11.9934 11.4854 11.9538 11.414 11.8976 11.3576L9.98825 9.39693L12.7084 6.60361L14.6178 8.56431C14.6727 8.62199 14.7422 8.66265 14.8185 8.68165C14.8949 8.70065 14.9748 8.69721 15.0493 8.67174L16.7102 8.09428C16.7931 8.06629 16.8653 8.01241 16.9169 7.94018C16.9685 7.86794 16.9968 7.78096 16.9979 7.6914V4.77721ZM19.0381 11.4785C16.6694 11.4785 14.7355 13.4653 14.7355 15.8968C14.7355 18.3282 16.6694 20.315 19.0381 20.315C21.4067 20.315 23.3406 18.3282 23.3406 15.8968C23.3406 13.4653 21.4067 11.4785 19.0381 11.4785ZM19.0381 12.338C20.9528 12.338 22.5037 13.9317 22.5037 15.8968C22.5037 17.8619 20.9528 19.4556 19.0381 19.4556C17.1234 19.4556 15.5724 17.8619 15.5724 15.8968C15.5724 13.9317 17.1234 12.338 19.0381 12.338ZM24.5176 28.9233C24.4242 28.9364 24.3379 28.9815 24.2726 29.0512C24.2072 29.121 24.1667 29.2114 24.1577 29.3077C24.1486 29.4041 24.1714 29.5007 24.2225 29.5821C24.2736 29.6634 24.35 29.7247 24.4392 29.7559L26.5708 30.5348C21.4981 33.2864 15.5774 32.978 10.9037 30.1857C10.8172 30.1328 10.7151 30.1137 10.616 30.1319C10.5327 30.1488 10.4563 30.1913 10.3971 30.2538C10.3379 30.3163 10.2986 30.3958 10.2844 30.4818C10.2702 30.5677 10.2818 30.6561 10.3177 30.7351C10.3535 30.8142 10.412 30.8801 10.4852 30.9243C15.3539 33.8332 21.5088 34.1838 26.8062 31.3809L26.1131 33.3819C26.0872 33.4364 26.0729 33.4959 26.071 33.5566C26.0691 33.6172 26.0798 33.6776 26.1022 33.7337C26.1247 33.7898 26.1585 33.8404 26.2014 33.8821C26.2443 33.9239 26.2953 33.9558 26.3511 33.9759C26.4068 33.9959 26.4661 34.0036 26.525 33.9984C26.5838 33.9933 26.641 33.9754 26.6926 33.9459C26.7443 33.9164 26.7892 33.8761 26.8246 33.8274C26.86 33.7788 26.8849 33.7231 26.8978 33.6639L27.9702 30.5885C28.0042 30.4834 27.9973 30.3688 27.951 30.2687C27.9047 30.1686 27.8225 30.0907 27.7217 30.0514L24.7269 28.9502C24.6605 28.923 24.5885 28.9138 24.5176 28.9233Z" fill="#163666"/>
</svg>
